<svg width="65" height="64" viewBox="0 0 65 64" fill="none" xmlns="http://www.w3.org/2000/svg">
<path fill-rule="evenodd" clip-rule="evenodd" d="M1.03395e-05 32.0903C1.10583e-05 23.7385 3.42411 15.7288 9.51904 9.82319C15.614 3.91759 23.8805 0.599857 32.5 0.599858C41.1195 0.599859 49.386 3.91759 55.481 9.8232C61.5759 15.7288 65 23.7385 65 32.0903C65 40.4421 61.5759 48.4518 55.481 54.3574C49.386 60.263 41.1195 63.5807 32.5 63.5807C23.8805 63.5807 15.614 60.263 9.51904 54.3574C3.4241 48.4518 9.62074e-06 40.4421 1.03395e-05 32.0903V32.0903ZM43.2494 30.6969C43.4382 30.5139 43.6624 30.3687 43.9092 30.2697C44.156 30.1706 44.4204 30.1197 44.6875 30.1197C44.9546 30.1197 45.2191 30.1706 45.4658 30.2697C45.7126 30.3687 45.9368 30.5139 46.1256 30.6969C46.3145 30.8798 46.4643 31.0971 46.5665 31.3362C46.6687 31.5753 46.7213 31.8315 46.7213 32.0903C46.7213 32.3491 46.6687 32.6053 46.5665 32.8444C46.4643 33.0835 46.3145 33.3008 46.1256 33.4838L33.9381 45.2927C33.7494 45.476 33.5253 45.6214 33.2785 45.7206C33.0317 45.8198 32.7672 45.8709 32.5 45.8709C32.2328 45.8709 31.9683 45.8198 31.7215 45.7206C31.4747 45.6214 31.2506 45.476 31.0619 45.2927L18.8744 33.4838C18.493 33.1142 18.2787 32.6129 18.2787 32.0903C18.2787 31.5677 18.493 31.0664 18.8744 30.6968C19.2558 30.3273 19.7731 30.1197 20.3125 30.1197C20.8519 30.1197 21.3692 30.3273 21.7506 30.6968L30.4688 39.1481L30.4688 20.2814C30.4688 19.7594 30.6828 19.2588 31.0637 18.8897C31.4446 18.5206 31.9613 18.3132 32.5 18.3132C33.0387 18.3132 33.5554 18.5206 33.9363 18.8897C34.3173 19.2588 34.5313 19.7594 34.5313 20.2814L34.5313 39.1481L43.2494 30.6969V30.6969Z" fill="#B32739"/>
</svg>
