<svg width="65" height="63" viewBox="0 0 65 63" fill="none" xmlns="http://www.w3.org/2000/svg">
<circle cx="32.5" cy="31.5" r="18.5" fill="white"/>
<path fill-rule="evenodd" clip-rule="evenodd" d="M1.03395e-05 31.4057C1.10583e-05 23.0764 3.42411 15.0882 9.51904 9.19852C15.614 3.30881 23.8805 3.98757e-06 32.5 4.75097e-06C41.1195 5.51438e-06 49.386 3.30881 55.481 9.19852C61.5759 15.0882 65 23.0764 65 31.4057C65 39.735 61.5759 47.7232 55.481 53.6129C49.386 59.5026 41.1195 62.8114 32.5 62.8114C23.8805 62.8114 15.614 59.5026 9.51904 53.6129C3.4241 47.7232 9.62074e-06 39.735 1.03395e-05 31.4057V31.4057ZM43.2494 30.016C43.4382 29.8335 43.6624 29.6887 43.9092 29.59C44.156 29.4912 44.4204 29.4404 44.6875 29.4404C44.9546 29.4404 45.2191 29.4912 45.4658 29.59C45.7126 29.6887 45.9368 29.8335 46.1256 30.016C46.3145 30.1985 46.4643 30.4152 46.5665 30.6536C46.6687 30.892 46.7213 31.1476 46.7213 31.4057C46.7213 31.6638 46.6687 31.9194 46.5665 32.1578C46.4643 32.3963 46.3145 32.6129 46.1256 32.7954L33.9381 44.5725C33.7494 44.7553 33.5253 44.9004 33.2785 44.9993C33.0317 45.0983 32.7672 45.1492 32.5 45.1492C32.2328 45.1492 31.9683 45.0983 31.7215 44.9993C31.4747 44.9004 31.2506 44.7553 31.0619 44.5725L18.8744 32.7954C18.493 32.4268 18.2787 31.9269 18.2787 31.4057C18.2787 30.8845 18.493 30.3846 18.8744 30.016C19.2558 29.6474 19.7731 29.4404 20.3125 29.4404C20.8519 29.4404 21.3692 29.6474 21.7506 30.016L30.4688 38.4445L30.4688 19.6286C30.4688 19.108 30.6828 18.6087 31.0637 18.2406C31.4446 17.8725 31.9613 17.6657 32.5 17.6657C33.0387 17.6657 33.5554 17.8725 33.9363 18.2406C34.3173 18.6087 34.5313 19.108 34.5313 19.6286L34.5313 38.4445L43.2494 30.016V30.016Z" fill="#B32739"/>
</svg>
