<svg width="44" height="44" viewBox="0 0 44 44" fill="none" xmlns="http://www.w3.org/2000/svg">
<path fill-rule="evenodd" clip-rule="evenodd" d="M-1.91624e-06 22C-1.41274e-06 16.1652 2.31785 10.5694 6.44365 6.44365C10.5695 2.31785 16.1652 -2.46524e-06 22 -1.94847e-06C27.8348 -1.43171e-06 33.4306 2.31785 37.5564 6.44365C41.6822 10.5695 44 16.1652 44 22C44 27.8348 41.6821 33.4305 37.5563 37.5563C33.4305 41.6821 27.8348 44 22 44C16.1652 44 10.5694 41.6821 6.44365 37.5563C2.31785 33.4305 -2.41974e-06 27.8348 -1.91624e-06 22ZM29.2765 21.0265C29.4043 20.8987 29.5561 20.7972 29.7231 20.7281C29.8902 20.6589 30.0692 20.6233 30.25 20.6233C30.4308 20.6233 30.6098 20.6589 30.7769 20.7281C30.9439 20.7972 31.0957 20.8987 31.2235 21.0265C31.3513 21.1543 31.4528 21.3061 31.5219 21.4731C31.5911 21.6402 31.6267 21.8192 31.6267 22C31.6267 22.1808 31.5911 22.3598 31.5219 22.5269C31.4528 22.6939 31.3513 22.8457 31.2235 22.9735L22.9735 31.2235C22.8458 31.3515 22.694 31.4531 22.527 31.5225C22.3599 31.5918 22.1809 31.6275 22 31.6275C21.8191 31.6275 21.6401 31.5918 21.473 31.5225C21.306 31.4531 21.1542 31.3515 21.0265 31.2235L12.7765 22.9735C12.5183 22.7153 12.3733 22.3651 12.3733 22C12.3733 21.6349 12.5183 21.2847 12.7765 21.0265C13.0347 20.7683 13.3849 20.6233 13.75 20.6233C14.1151 20.6233 14.4653 20.7683 14.7235 21.0265L20.625 26.9307L20.625 13.75C20.625 13.3853 20.7699 13.0356 21.0277 12.7777C21.2856 12.5199 21.6353 12.375 22 12.375C22.3647 12.375 22.7144 12.5199 22.9723 12.7777C23.2301 13.0356 23.375 13.3853 23.375 13.75L23.375 26.9307L29.2765 21.0265Z" fill="white"/>
</svg>
