<svg width="39" height="38" viewBox="0 0 39 38" fill="none" xmlns="http://www.w3.org/2000/svg">
<path d="M36.8107 0.5H1.53378C0.685408 0.5 0 1.1626 0 1.98274V36.0859C0 36.906 0.685408 37.5686 1.53378 37.5686H36.8107C37.6591 37.5686 38.3445 36.906 38.3445 36.0859V1.98274C38.3445 1.1626 37.6591 0.5 36.8107 0.5ZM32.3819 11.3194H29.3191C26.9178 11.3194 26.4529 12.4222 26.4529 14.0439V17.6164H32.1854L31.4377 23.2092H26.4529V37.5686H20.476V23.2138H15.4768V17.6164H20.476V13.4925C20.476 8.70606 23.5004 6.09736 27.9196 6.09736C30.0381 6.09736 31.8547 6.25027 32.3867 6.31977V11.3194H32.3819Z" fill="#AAA9AD"/>
</svg>
