<svg width="39" height="38" viewBox="0 0 39 38" fill="none" xmlns="http://www.w3.org/2000/svg">
<path d="M36.8107 0H1.53378C0.685408 0 0 0.662601 0 1.48274V35.5859C0 36.406 0.685408 37.0686 1.53378 37.0686H36.8107C37.6591 37.0686 38.3445 36.406 38.3445 35.5859V1.48274C38.3445 0.662601 37.6591 0 36.8107 0ZM32.3819 10.8194H29.3191C26.9178 10.8194 26.4529 11.9222 26.4529 13.5439V17.1164H32.1854L31.4377 22.7092H26.4529V37.0686H20.476V22.7138H15.4768V17.1164H20.476V12.9925C20.476 8.20606 23.5004 5.59736 27.9196 5.59736C30.0381 5.59736 31.8547 5.75027 32.3867 5.81977V10.8194H32.3819Z" fill="white"/>
</svg>
