<svg width="52" height="51" viewBox="0 0 52 51" fill="none" xmlns="http://www.w3.org/2000/svg">
<path d="M25.5 50.5C39.3071 50.5 50.5 39.3071 50.5 25.5C50.5 11.6929 39.3071 0.5 25.5 0.5C11.6929 0.5 0.5 11.6929 0.5 25.5C0.5 39.3071 11.6929 50.5 25.5 50.5Z" fill="#01312C" stroke="#AAA9AD" stroke-width="0.5" stroke-miterlimit="10"/>
<path d="M25.6016 19.6001C25.6016 19.6001 27.3016 12.2001 32.5016 14.6001C37.6016 17.1001 25.6016 19.6001 25.6016 19.6001ZM25.6016 19.6001C25.6016 19.6001 23.9016 12.2001 18.7016 14.6001C13.6016 17.1001 25.6016 19.6001 25.6016 19.6001ZM25.6016 19.6001V36.9001V19.6001ZM35.9016 23.7001V36.9001H15.3016V23.7001H35.9016ZM37.6016 19.6001V23.7001H13.6016V19.6001H37.6016Z" stroke="#AAA9AD" stroke-linecap="round" stroke-linejoin="round"/>
</svg>
