<svg width="52" height="38" viewBox="0 0 52 38" fill="none" xmlns="http://www.w3.org/2000/svg">
<path d="M50.6973 12.1947C49.899 11.4551 48.4836 11.8848 47.9442 12.8942L49.6228 8.69668C50.1579 7.37744 50.132 5.31864 48.8158 4.73398C47.4997 4.14931 45.9678 5.45856 45.4629 6.98767L46.6151 3.89446C47.1243 2.36535 46.7316 0.766275 45.4197 0.181613C44.1036 -0.403048 42.891 0.48144 42.3818 2.01055L41.1347 5.57849C41.6439 4.04937 41.6741 2.85506 40.3579 2.2704C39.0418 1.68574 37.6221 3.03996 37.1172 4.56907C37.1172 4.56907 32.5516 16.6771 32.2194 16.9069C31.7663 17.2217 30.886 17.6315 30.6961 17.1368C30.1437 15.7126 30.5537 13.8787 30.161 10.7155C29.8934 8.54177 28.6852 7.4524 27.3431 7.37245C26.3549 7.31748 25.8673 8.12701 25.6602 10.2458C25.453 8.12701 24.9654 7.31248 23.9772 7.37245C22.6352 7.4524 21.4269 8.53677 21.1594 10.7155C20.771 13.8787 21.1766 15.7076 20.6243 17.1368C20.4344 17.6315 19.5541 17.2217 19.101 16.9069C18.7687 16.6771 14.2032 4.56907 14.2032 4.56907C13.694 3.03996 12.2743 1.68574 10.9624 2.2704C9.64627 2.85506 9.67648 4.04937 10.1857 5.57849L8.93857 2.01055C8.42937 0.48144 7.21678 -0.403048 5.90063 0.181613C4.58448 0.766275 4.1961 2.36535 4.7053 3.89446L5.85748 6.98767C5.34828 5.45856 3.81636 4.14931 2.50021 4.73398C1.18406 5.31864 1.15817 7.37744 1.69326 8.69668L3.37189 12.8942C2.8368 11.8848 1.4214 11.4551 0.618758 12.1947C-0.386696 13.1291 0.0146226 15.068 0.549714 16.1574C0.549714 16.1574 5.65898 29.7045 7.52748 32.6328C9.39599 35.5611 12.4641 39.6488 17.6554 37.3001C23.481 34.6666 25.1639 31.3236 25.6516 28.5352C26.1349 31.3236 27.8221 34.6716 33.6477 37.3001C38.839 39.6488 41.9071 35.5611 43.7756 32.6328C45.6441 29.7045 50.7534 16.1574 50.7534 16.1574C51.3014 15.073 51.7027 13.1291 50.6973 12.1947Z" fill="#CCA43D"/>
<path d="M32.35 17.2568C34.8269 19.7554 35.129 21.9141 34.7967 26.5315C34.7536 27.1661 34.2573 27.4759 34.2659 26.8363C34.3997 19.7854 30.4297 17.6416 30.4297 17.6416L32.35 17.2568V17.2568Z" fill="#B0903C"/>
<path d="M44.9901 24.003C44.9901 24.003 41.7709 20.4251 39.8635 19.3258C38.2842 18.4163 34.9312 17.7217 34.9312 17.7217L34.668 18.4862C34.668 18.4862 37.7404 19.8554 39.2335 20.7099C41.0416 21.7394 44.6621 24.6926 44.6621 24.6926L44.9901 24.003V24.003Z" fill="#B0903C"/>
<path d="M6.61719 23.503C6.61719 23.503 9.83637 19.9251 11.7437 18.8258C13.3231 17.9163 16.676 17.2217 16.676 17.2217L16.9393 17.9862C16.9393 17.9862 13.8668 19.3554 12.3737 20.2099C10.5656 21.2394 6.94515 24.1926 6.94515 24.1926L6.61719 23.503Z" fill="#B0903C"/>
<path d="M42.7969 22.1634L47.1078 12.6689L48.3592 13.7333L43.9879 22.928L42.7969 22.1634Z" fill="#B0903C"/>
<path d="M39.4279 20.3147C39.1258 20.0899 39.0395 19.6251 39.2294 19.2803C39.8724 18.111 44.7875 6.29785 44.7875 6.29785L46.0432 7.66206C46.0432 7.66206 40.8865 19.2054 40.3514 20.3997C40.114 20.9394 39.5358 20.3947 39.4279 20.3147Z" fill="#B0903C"/>
<path d="M35.7852 18.1009L40.286 5.5332L41.7402 6.14285L37.1747 18.5607L35.7852 18.1009Z" fill="#B0903C"/>
<path d="M18.9681 17.2568C16.4911 19.7554 16.189 21.9141 16.5213 26.5315C16.5645 27.1661 17.0607 27.4759 17.0521 26.8363C16.9183 19.7854 20.8883 17.6416 20.8883 17.6416L18.9681 17.2568V17.2568Z" fill="#B0903C"/>
<path d="M8.51158 22.1639L4.20064 12.6694L2.94922 13.7338L7.32057 22.9285L8.51158 22.1639Z" fill="#B0903C"/>
<path d="M11.5392 20.4352C11.6554 20.435 11.7694 20.3988 11.8694 20.3302C11.9694 20.2617 12.0516 20.1633 12.1076 20.0454C12.1636 19.9275 12.1912 19.7944 12.1876 19.6599C12.184 19.5254 12.1494 19.3945 12.0872 19.2808C11.4442 18.1115 6.52918 6.29834 6.52918 6.29834L5.27344 7.52263C5.27344 7.52263 10.3395 19.2658 10.9653 20.3952C11.0818 20.625 11.3234 20.4352 11.5392 20.4352Z" fill="#B0903C"/>
<path d="M15.5215 18.1014L11.0206 5.53369L9.56641 6.14334L14.1319 18.5611L15.5215 18.1014Z" fill="#B0903C"/>
<path d="M44.5955 1.00186C44.7595 1.00186 44.9321 1.04184 45.1004 1.1168C46.0627 1.54655 46.0843 2.67589 45.8081 3.5204L44.7638 6.31878C44.7207 6.42372 44.6818 6.52866 44.6473 6.6336C44.479 7.14331 44.6905 7.71298 45.1263 7.91786C45.3354 8.01678 45.5696 8.0167 45.7786 7.91764C45.9877 7.81857 46.1548 7.62844 46.2439 7.38816L46.3346 7.1483C46.7014 6.27381 47.4911 5.5942 48.1383 5.5942C48.2635 5.5942 48.3843 5.61919 48.5008 5.66916C48.7209 5.7691 48.8719 5.944 48.9669 6.22883C49.1567 6.77352 49.1006 7.61803 48.8288 8.28265L47.1501 12.4802C47.09 12.6324 47.0636 12.7995 47.0736 12.9665C47.0835 13.1334 47.1295 13.2949 47.2071 13.436C47.2848 13.5771 47.3917 13.6935 47.5182 13.7744C47.6447 13.8554 47.7867 13.8983 47.9312 13.8994C48.2203 13.8994 48.5051 13.7295 48.6648 13.4247C48.846 13.0849 49.2862 12.83 49.6918 12.83C49.8213 12.83 50.0068 12.855 50.1449 12.9849C50.6757 13.4746 50.4038 14.8588 50.0025 15.6734C49.9853 15.7033 49.9723 15.7383 49.9594 15.7683C49.9076 15.9032 44.8674 29.2455 43.0765 32.0489C41.5101 34.5025 39.5165 37.011 36.6123 37.011C35.7751 37.011 34.8776 36.8011 33.9541 36.3814C27.382 33.3931 26.7174 29.5903 26.5017 28.341C26.4197 27.8763 26.0658 27.5365 25.6559 27.5365C25.2459 27.5365 24.8921 27.8713 24.8101 28.341C24.5943 29.5903 23.9298 33.3981 17.349 36.3764C16.4255 36.7961 15.5323 37.006 14.6908 37.006C11.7823 37.006 9.79299 34.4975 8.22655 32.0439C6.43572 29.2355 1.3955 15.8932 1.34372 15.7583C1.33195 15.7252 1.3175 15.6934 1.30057 15.6634C0.903565 14.8538 0.627389 13.4696 1.15816 12.9799C1.29625 12.855 1.48181 12.825 1.61127 12.825C2.0169 12.825 2.45706 13.0799 2.6383 13.4197C2.80228 13.7245 3.08277 13.8944 3.37189 13.8944C3.5164 13.8933 3.65838 13.8504 3.78486 13.7694C3.91135 13.6885 4.01831 13.5721 4.09598 13.431C4.17365 13.2899 4.21955 13.1284 4.22951 12.9615C4.23946 12.7945 4.21314 12.6274 4.15295 12.4752L2.47432 8.27265C2.20677 7.61303 2.15067 6.77352 2.34054 6.22384C2.4398 5.944 2.58651 5.76411 2.80659 5.66416C2.9231 5.61419 3.03962 5.58921 3.16907 5.58921C3.81636 5.58921 4.60605 6.26881 4.97285 7.14331L5.06347 7.38317C5.20587 7.75795 5.52089 7.98782 5.85748 7.98782C5.96536 7.98782 6.07756 7.96283 6.18112 7.91286C6.61696 7.70798 6.82841 7.13831 6.66011 6.6286C6.62559 6.52367 6.58675 6.41873 6.5436 6.31379L5.49931 3.51541C5.22314 2.6709 5.24471 1.53655 6.20701 1.1118C6.37962 1.03684 6.54792 0.996865 6.7119 0.996865C7.30309 0.996865 7.84681 1.52156 8.13162 2.38106L9.37873 5.949C9.46294 6.19343 9.6275 6.38916 9.83626 6.49316C10.045 6.59717 10.2809 6.60095 10.4921 6.50368C10.9322 6.30379 11.1523 5.72912 10.9797 5.21442C10.7596 4.55481 10.6733 4.06009 10.7251 3.75027C10.7423 3.64033 10.7812 3.40547 11.2602 3.19559C11.3724 3.14562 11.4803 3.12064 11.5968 3.12064C12.2527 3.12064 13.0596 3.92517 13.3876 4.91959C13.3919 4.93459 13.3962 4.94958 13.4005 4.95957C18.0783 17.3624 18.3545 17.5523 18.6436 17.7572C18.8464 17.8971 19.5627 18.3568 20.2273 18.3568C20.7624 18.3568 21.1982 18.052 21.3967 17.5373C21.7721 16.5629 21.7851 15.5434 21.8023 14.2542C21.8153 13.2947 21.8282 12.2054 21.9965 10.8512C22.1821 9.35702 22.9329 8.42756 24.0031 8.3676H24.0549C24.2275 8.3676 24.59 8.3676 24.7842 10.3564C24.8316 10.8612 25.2028 11.2459 25.6429 11.2459C26.0831 11.2459 26.4499 10.9311 26.5017 10.4264C26.6958 8.44255 27.0583 8.50252 27.2309 8.50252C27.2482 8.50252 27.2655 8.43756 27.2827 8.43756C28.3572 8.49752 29.1038 9.397 29.2893 10.8911C29.4576 12.2454 29.4706 13.3147 29.4835 14.2742C29.5008 15.5634 29.5137 16.5728 29.8891 17.5523C30.0876 18.067 30.5235 18.3668 31.0586 18.3668C31.7231 18.3668 32.4394 17.9021 32.6423 17.7622C32.9357 17.5573 33.2076 17.3674 37.8853 4.96457C37.8896 4.94958 37.8939 4.93459 37.8982 4.92459C38.2262 3.93516 39.0288 3.12563 39.6891 3.12563C39.8056 3.12563 39.9178 3.15062 40.0257 3.20059C40.5047 3.41547 40.5392 3.64533 40.5608 3.75527C40.6125 4.06509 40.5262 4.5548 40.3062 5.21942C40.1379 5.72912 40.3536 6.30879 40.7938 6.50867C41.0049 6.60595 41.2408 6.60217 41.4496 6.49816C41.6583 6.39415 41.8229 6.19843 41.9071 5.95399L43.1585 2.37107C43.4606 1.52656 44.0043 1.00186 44.5955 1.00186V1.00186ZM44.5955 0.00244141C43.616 0.00244141 42.7745 0.806976 42.3732 2.01128L41.1261 5.57921C41.6353 4.0501 41.6655 2.85579 40.3493 2.27113C40.1335 2.17618 39.9178 2.13121 39.702 2.13121C38.5973 2.13121 37.5314 3.29054 37.1086 4.5698C37.1086 4.5698 32.543 16.6778 32.2107 16.9077C31.9087 17.1175 31.421 17.3674 31.0715 17.3674C30.8946 17.3674 30.7522 17.3024 30.6875 17.1375C30.1351 15.7133 30.545 13.8794 30.1524 10.7162C29.8848 8.54249 28.6765 7.45313 27.3345 7.37317C27.3043 7.37317 27.2698 7.36818 27.2396 7.36818C26.3161 7.36818 25.8501 8.1977 25.6515 10.2465C25.453 8.1977 24.987 7.36818 24.0635 7.36818C24.0333 7.36818 23.9988 7.36818 23.9686 7.37317C22.6266 7.45313 21.4183 8.5375 21.1507 10.7162C20.7624 13.8794 21.168 15.7083 20.6156 17.1375C20.5509 17.3024 20.4085 17.3674 20.2316 17.3674C19.8821 17.3674 19.3944 17.1175 19.0924 16.9077C18.7601 16.6778 14.1945 4.5698 14.1945 4.5698C13.7673 3.29054 12.7058 2.13121 11.6011 2.13121C11.3853 2.13121 11.1696 2.17618 10.9538 2.27113C9.63764 2.85579 9.66785 4.0501 10.177 5.57921L8.93425 2.01128C8.53293 0.806976 7.69578 0.00244141 6.7119 0.00244141C6.43293 0.00538743 6.15668 0.0663199 5.89631 0.182338C4.58016 0.766999 4.19179 2.36607 4.70099 3.89519L5.75823 6.72855C5.79275 6.8135 5.82727 6.89845 5.85316 6.9884L5.75823 6.72855C5.27492 5.56422 4.222 4.58978 3.16907 4.58978C2.94468 4.58978 2.71597 4.63476 2.50021 4.7347C1.18406 5.31936 1.15817 7.37817 1.69326 8.69741L3.37189 12.895C3.02235 12.2354 2.29739 11.8206 1.61127 11.8206C1.24879 11.8206 0.89925 11.9355 0.618758 12.1954C-0.386696 13.1298 0.0146226 15.0687 0.549714 16.1581C0.549714 16.1581 5.65898 29.7052 7.52748 32.6335C9.00761 34.9522 11.2429 38.0004 14.6865 38.0004C15.5927 38.0004 16.5766 37.7906 17.6554 37.3008C23.481 34.6674 25.1639 31.3243 25.6515 28.5359C26.1349 31.3243 27.8221 34.6724 33.6477 37.3008C34.7265 37.7906 35.7147 38.0004 36.6166 38.0004C40.0602 38.0004 42.2955 34.9522 43.7756 32.6335C45.6441 29.7052 50.7534 16.1581 50.7534 16.1581C51.2885 15.0687 51.6941 13.1298 50.6843 12.1954C50.4082 11.9405 50.0543 11.8206 49.6918 11.8206C49.01 11.8206 48.2807 12.2354 47.9312 12.895L49.6098 8.69741C50.1449 7.37817 50.119 5.31936 48.8029 4.7347C48.5828 4.63476 48.3584 4.58978 48.134 4.58978C47.0854 4.58978 46.0282 5.56422 45.5449 6.72855L45.4499 6.9884C45.4801 6.90344 45.5103 6.8135 45.5449 6.72855L46.6021 3.89519C47.1113 2.36607 46.7186 0.766999 45.4068 0.182338C45.1349 0.062407 44.8587 0.00244141 44.5955 0.00244141V0.00244141Z" fill="#B0903C"/>
<path d="M25.6556 10.5054L25.6211 28.1302" stroke="#B0903C" stroke-width="0.375" stroke-miterlimit="10" stroke-linecap="round" stroke-linejoin="round"/>
</svg>
