<svg width="58" height="63" viewBox="0 0 58 63" fill="none" xmlns="http://www.w3.org/2000/svg">
<path d="M26 29.7778C28.9385 29.7778 31.8109 28.9046 34.2542 27.2686C36.6974 25.6325 38.6017 23.3072 39.7262 20.5866C40.8507 17.866 41.1449 14.8724 40.5717 11.9842C39.9984 9.09606 38.5834 6.44311 36.5056 4.36086C34.4278 2.27861 31.7805 0.860583 28.8985 0.286093C26.0165 -0.288398 23.0292 0.00645101 20.3144 1.13336C17.5996 2.26026 15.2793 4.16861 13.6467 6.61707C12.0142 9.06554 11.1429 11.9441 11.1429 14.8889C11.1429 18.8377 12.7082 22.6247 15.4944 25.4169C18.2807 28.2091 22.0596 29.7778 26 29.7778ZM48.2857 63C49.2708 63 50.2155 62.6078 50.9121 61.9098C51.6087 61.2117 52 60.265 52 59.2778C52 52.3674 49.2607 45.7401 44.3848 40.8537C39.5088 35.9674 32.8956 33.2222 26 33.2222C19.1044 33.2222 12.4912 35.9674 7.61522 40.8537C2.73928 45.7401 1.02753e-07 52.3674 0 59.2778C0 60.265 0.391326 61.2117 1.08789 61.9098C1.78445 62.6078 2.7292 63 3.71429 63H48.2857Z" fill="#CCA43D"/>
<path d="M36.3672 36.6469C36.6813 35.9195 37.1343 35.2603 37.7008 34.7063C38.2677 34.1506 38.936 33.709 39.6695 33.4055C40.4301 33.0895 41.2459 32.9278 42.0695 32.9297C43.225 32.9297 44.3523 33.2461 45.332 33.8438C45.5664 33.9867 45.7891 34.1438 46 34.3149C46.2109 34.1438 46.4336 33.9867 46.668 33.8438C47.6477 33.2461 48.775 32.9297 49.9305 32.9297C50.7625 32.9297 51.5688 33.0891 52.3305 33.4055C53.0664 33.7102 53.7297 34.1485 54.2992 34.7063C54.8664 35.2597 55.3195 35.919 55.6328 36.6469C55.9586 37.4039 56.125 38.2078 56.125 39.0352C56.125 39.8156 55.9656 40.6289 55.6492 41.4563C55.3844 42.1477 55.0047 42.8649 54.5195 43.5891C53.7508 44.7352 52.6938 45.9305 51.3813 47.1422C49.2063 49.1508 47.0523 50.5383 46.9609 50.5945L46.4055 50.9508C46.1594 51.1078 45.843 51.1078 45.5969 50.9508L45.0414 50.5945C44.95 50.536 42.7984 49.1508 40.6211 47.1422C39.3086 45.9305 38.2516 44.7352 37.4828 43.5891C36.9977 42.8649 36.6156 42.1477 36.3531 41.4563C36.0367 40.6289 35.8773 39.8156 35.8773 39.0352C35.875 38.2078 36.0414 37.4039 36.3672 36.6469Z" fill="#01312C"/>
</svg>
