<svg width="39" height="38" viewBox="0 0 39 38" fill="none" xmlns="http://www.w3.org/2000/svg">
<path d="M36.8107 0.601196H1.53378C0.685408 0.601196 0 1.26559 0 2.08794V36.2831C0 37.1054 0.685408 37.7698 1.53378 37.7698H36.8107C37.6591 37.7698 38.3445 37.1054 38.3445 36.2831V2.08794C38.3445 1.26559 37.6591 0.601196 36.8107 0.601196ZM32.3819 11.4498H29.3191C26.9178 11.4498 26.4529 12.5556 26.4529 14.1817V17.7638H32.1854L31.4377 23.3716H26.4529V37.7698H20.476V23.3763H15.4768V17.7638H20.476V13.6288C20.476 8.8294 23.5004 6.21366 27.9196 6.21366C30.0381 6.21366 31.8547 6.36698 32.3867 6.43667V11.4498H32.3819Z" fill="#B32739"/>
</svg>
