<svg width="53" height="55" viewBox="0 0 53 55" fill="none" xmlns="http://www.w3.org/2000/svg">
<path d="M5.52802 0H32.9758C36.031 0 38.5033 2.47225 38.5033 5.5275V21.0293L51.4338 33.7948C51.8212 34.1779 52.0861 34.6676 52.1948 35.2015C52.3034 35.7355 52.251 36.2897 52.0442 36.7938C51.8373 37.298 51.4854 37.7293 51.033 38.0331C50.5806 38.3368 50.0482 38.4994 49.5033 38.5V52.25C49.5033 52.9794 49.2135 53.6788 48.6978 54.1945C48.1821 54.7103 47.4826 55 46.7533 55H2.75327C2.02392 55 1.32445 54.7103 0.808723 54.1945C0.292999 53.6788 0.0032692 52.9794 0.0032692 52.25V5.52475C0.0032692 2.47225 2.47277 0 5.52802 0ZM27.7178 36.0553V49.5H44.0033V34.188L35.789 26.0783L27.7178 34.3365V36.0553ZM22.0033 19.25H27.5033V13.75H22.0033V19.25ZM11.0033 41.25H16.5033V35.75H11.0033V41.25ZM11.0033 30.25H16.5033V24.75H11.0033V30.25ZM11.0033 19.25H16.5033V13.75H11.0033V19.25Z" fill="#CCA43D"/>
<path d="M29.5781 37.4313C29.7876 36.9463 30.0896 36.5069 30.4672 36.1375C30.8451 35.7671 31.2907 35.4727 31.7797 35.2703C32.2868 35.0597 32.8306 34.9519 33.3797 34.9531C34.15 34.9531 34.9016 35.1641 35.5547 35.5625C35.7109 35.6578 35.8594 35.7625 36 35.8766C36.1406 35.7625 36.2891 35.6578 36.4453 35.5625C37.0984 35.1641 37.85 34.9531 38.6203 34.9531C39.175 34.9531 39.7125 35.0594 40.2203 35.2703C40.7109 35.4734 41.1531 35.7656 41.5328 36.1375C41.9109 36.5065 42.213 36.946 42.4219 37.4313C42.6391 37.9359 42.75 38.4719 42.75 39.0234C42.75 39.5438 42.6437 40.0859 42.4328 40.6375C42.2562 41.0984 42.0031 41.5766 41.6797 42.0594C41.1672 42.8234 40.4625 43.6203 39.5875 44.4281C38.1375 45.7672 36.7016 46.6922 36.6406 46.7297L36.2703 46.9672C36.1063 47.0719 35.8953 47.0719 35.7313 46.9672L35.3609 46.7297C35.3 46.6906 33.8656 45.7672 32.4141 44.4281C31.5391 43.6203 30.8344 42.8234 30.3219 42.0594C29.9984 41.5766 29.7438 41.0984 29.5688 40.6375C29.3578 40.0859 29.2516 39.5438 29.2516 39.0234C29.25 38.4719 29.3609 37.9359 29.5781 37.4313Z" fill="#01312C"/>
</svg>
