<svg width="50" height="62" viewBox="0 0 50 62" fill="none" xmlns="http://www.w3.org/2000/svg">
<path d="M44.1174 17.516C45.6307 10.3968 41.9879 3.59057 35.9811 2.31378C29.9743 1.037 23.8782 5.77318 22.3649 12.8923C20.8517 20.0115 24.4945 26.8178 30.5013 28.0945C36.508 29.3713 42.6042 24.6351 44.1174 17.516Z" fill="#123B77"/>
<path d="M11.3665 26.2178V28.8189C7.38994 29.6837 2.50242 31.868 1.76443 34.9814C-0.545074 44.7202 0.0759552 59.8127 0.0759552 60.0285V60.2492C0.0759552 61.3266 1.16811 61.3266 2.24379 61.3266H28.7603C29.836 61.3266 30.9265 61.3266 30.9265 60.2492V34.9814C30.9265 32.1497 28.5989 29.318 23.2962 28.6657V26.2178H11.3665V26.2178Z" fill="#CCA43D"/>
<path d="M38.6342 23.9375V28.8184C42.6108 29.6833 47.4983 31.8676 48.2363 34.981C50.5441 44.7214 49.9247 59.8139 49.9247 60.0281V60.2488C49.9247 61.3261 48.8326 61.3261 47.7569 61.3261H21.2404C20.1647 61.3261 19.0742 61.3261 19.0742 60.2488V34.981C19.0742 32.1493 21.4018 29.3176 26.7045 28.6652V26.2174L38.6342 23.9375Z" fill="#123B77"/>
<path d="M19.4967 28.0925C25.5035 26.8157 29.1463 20.0094 27.6331 12.8903C26.1198 5.77111 20.0237 1.03493 14.0169 2.31172C8.01009 3.5885 4.36733 10.3948 5.88056 17.5139C7.39378 24.6331 13.49 29.3692 19.4967 28.0925Z" fill="#CCA43D"/>
<path d="M26.8067 28.5253C24.6487 29.1529 21.1383 29.4247 17.0909 27.896C12.8195 26.2816 8.89071 24.6936 7.35872 24.1599C5.96511 23.674 2.40861 24.1056 1.61626 25.5568C0.823908 27.0081 0.375844 29.6504 2.33612 31.5843C4.2964 33.5182 14.6216 37.335 17.5407 39.0515C19.0693 39.9509 18.9804 45.3491 19.0693 49.7572C19.2061 56.4172 31.2313 27.2387 26.8067 28.5253V28.5253Z" fill="#123B77"/>
<path d="M15.5103 43.6726C17.7028 44.1635 21.4471 45.0085 25.3924 43.2295C29.5551 41.3515 33.1544 38.729 34.6485 38.1014C36.0092 37.5298 38.8837 36.9763 40.4668 39.1376C41.4453 40.4719 41.9609 43.1471 40.1258 45.198C38.2891 47.2505 31.0706 51.6537 25.7301 52.9435C21.2017 54.0374 14.2534 53.9319 12.0361 51.6372C8.57516 48.0544 12.499 42.9972 15.5103 43.6726V43.6726ZM36.5264 30.4152C36.5264 27.1996 39.3664 25.4469 42.6857 24.1604C44.0612 23.6267 47.6358 24.106 48.4282 25.5573C49.2205 27.0085 49.6686 29.6508 47.7083 31.5847C45.748 33.5187 36.5264 35.3636 36.5264 30.4152Z" fill="#CCA43D"/>
</svg>
