<svg width="51" height="62" viewBox="0 0 51 62" fill="none" xmlns="http://www.w3.org/2000/svg">
<path d="M44.1174 17.516C45.6307 10.3968 41.9879 3.59057 35.9811 2.31378C29.9743 1.037 23.8782 5.77318 22.3649 12.8923C20.8517 20.0115 24.4945 26.8178 30.5013 28.0945C36.508 29.3713 42.6042 24.6351 44.1174 17.516Z" fill="#01312C"/>
<path d="M11.3665 26.2179V28.819C7.38994 29.6838 2.50242 31.8681 1.76443 34.9815C-0.545074 44.7203 0.0759552 59.8128 0.0759552 60.0286V60.2493C0.0759552 61.3267 1.16811 61.3267 2.24379 61.3267H28.7603C29.836 61.3267 30.9265 61.3267 30.9265 60.2493V34.9815C30.9265 32.1498 28.5989 29.3181 23.2962 28.6658V26.2179H11.3665Z" fill="#CCA43D"/>
<path d="M38.6381 23.9375V28.8184C42.6147 29.6833 47.5022 31.8676 48.2402 34.981C50.548 44.7214 49.9287 59.8139 49.9287 60.0281V60.2488C49.9287 61.3261 48.8365 61.3261 47.7608 61.3261H21.2443C20.1686 61.3261 19.0781 61.3261 19.0781 60.2488V34.981C19.0781 32.1493 21.4058 29.3176 26.7084 28.6652V26.2174L38.6381 23.9375Z" fill="#01312C"/>
<path d="M19.4967 28.0926C25.5035 26.8158 29.1463 20.0096 27.6331 12.8904C26.1198 5.77124 20.0237 1.03506 14.0169 2.31184C8.01009 3.58862 4.36733 10.3949 5.88056 17.514C7.39378 24.6332 13.49 29.3694 19.4967 28.0926Z" fill="#CCA43D"/>
<path d="M26.8028 28.5254C24.6448 29.153 21.1344 29.4248 17.087 27.8961C12.8156 26.2818 8.8868 24.6938 7.35482 24.16C5.96121 23.6741 2.4047 24.1057 1.61235 25.557C0.820002 27.0082 0.371937 29.6505 2.33222 31.5844C4.2925 33.5183 14.6177 37.3351 17.5367 39.0516C19.0654 39.951 18.9765 45.3492 19.0654 49.7574C19.2022 56.4174 31.2274 27.2388 26.8028 28.5254Z" fill="#01312C"/>
<path d="M15.5064 43.6727C17.6989 44.1636 21.4432 45.0087 25.3885 43.2296C29.5512 41.3517 33.1505 38.7292 34.6446 38.1015C36.0053 37.5299 38.8798 36.9764 40.4629 39.1377C41.4414 40.472 41.957 43.1472 40.1219 45.1981C38.2852 47.2506 31.0667 51.6538 25.7262 52.9437C21.1978 54.0375 14.2495 53.932 12.0322 51.6374C8.57125 48.0545 12.4951 42.9973 15.5064 43.6727ZM36.5225 30.4153C36.5225 27.1998 39.3625 25.447 42.6818 24.1605C44.0573 23.6268 47.6319 24.1061 48.4242 25.5574C49.2166 27.0087 49.6647 29.6509 47.7044 31.5849C45.7441 33.5188 36.5225 35.3637 36.5225 30.4153Z" fill="#CCA43D"/>
</svg>
