<svg width="50" height="62" viewBox="0 0 50 62" fill="none" xmlns="http://www.w3.org/2000/svg">
<path d="M44.1174 17.516C45.6307 10.3968 41.9879 3.59057 35.9811 2.31378C29.9743 1.037 23.8782 5.77318 22.3649 12.8923C20.8517 20.0115 24.4945 26.8178 30.5013 28.0945C36.508 29.3713 42.6042 24.6351 44.1174 17.516Z" fill="white"/>
<path d="M11.3665 26.2179V28.819C7.38994 29.6838 2.50242 31.8681 1.76443 34.9815C-0.545074 44.7203 0.0759552 59.8128 0.0759552 60.0286V60.2493C0.0759552 61.3267 1.16811 61.3267 2.24379 61.3267H28.7603C29.836 61.3267 30.9265 61.3267 30.9265 60.2493V34.9815C30.9265 32.1498 28.5989 29.3181 23.2962 28.6658V26.2179H11.3665Z" fill="#CCA43D"/>
<path d="M38.6342 23.9375V28.8184C42.6108 29.6833 47.4983 31.8676 48.2363 34.981C50.5441 44.7214 49.9247 59.8139 49.9247 60.0281V60.2488C49.9247 61.3261 48.8326 61.3261 47.7569 61.3261H21.2404C20.1647 61.3261 19.0742 61.3261 19.0742 60.2488V34.981C19.0742 32.1493 21.4018 29.3176 26.7045 28.6652V26.2174L38.6342 23.9375Z" fill="white"/>
<path d="M19.4967 28.0926C25.5035 26.8158 29.1463 20.0096 27.6331 12.8904C26.1198 5.77124 20.0237 1.03506 14.0169 2.31184C8.01009 3.58862 4.36733 10.3949 5.88056 17.514C7.39378 24.6332 13.49 29.3694 19.4967 28.0926Z" fill="#CCA43D"/>
<path d="M26.8067 28.5254C24.6487 29.153 21.1383 29.4248 17.0909 27.8961C12.8195 26.2818 8.89071 24.6938 7.35872 24.16C5.96511 23.6741 2.4086 24.1057 1.61626 25.557C0.823908 27.0082 0.375844 29.6505 2.33612 31.5844C4.2964 33.5183 14.6216 37.3351 17.5407 39.0516C19.0693 39.951 18.9804 45.3492 19.0693 49.7574C19.2061 56.4174 31.2313 27.2388 26.8067 28.5254Z" fill="white"/>
<path d="M15.5103 43.6726C17.7028 44.1635 21.4471 45.0086 25.3924 43.2295C29.5551 41.3516 33.1544 38.7291 34.6485 38.1015C36.0092 37.5299 38.8837 36.9764 40.4668 39.1376C41.4453 40.4719 41.9609 43.1472 40.1258 45.198C38.2891 47.2506 31.0706 51.6538 25.7301 52.9436C21.2017 54.0374 14.2534 53.932 12.0361 51.6373C8.57516 48.0544 12.499 42.9972 15.5103 43.6726ZM36.5264 30.4152C36.5264 27.1997 39.3664 25.447 42.6857 24.1604C44.0612 23.6267 47.6358 24.1061 48.4282 25.5573C49.2205 27.0086 49.6686 29.6509 47.7083 31.5848C45.748 33.5187 36.5264 35.3637 36.5264 30.4152Z" fill="#CCA43D"/>
</svg>
