<svg width="53" height="55" viewBox="0 0 53 55" fill="none" xmlns="http://www.w3.org/2000/svg">
<path d="M5.52411 0H32.9719C36.0271 0 38.4994 2.47225 38.4994 5.5275V21.0293L51.4299 33.7948C51.8173 34.1779 52.0822 34.6676 52.1908 35.2015C52.2995 35.7355 52.2471 36.2897 52.0403 36.7938C51.8334 37.298 51.4815 37.7293 51.0291 38.0331C50.5767 38.3368 50.0443 38.4994 49.4994 38.5V52.25C49.4994 52.9793 49.2096 53.6788 48.6939 54.1946C48.1782 54.7103 47.4787 55 46.7494 55H2.74936C2.02002 55 1.32054 54.7103 0.804817 54.1946C0.289091 53.6788 -0.000637769 52.9793 -0.000637769 52.25V5.52475C-0.000637769 2.47225 2.46886 0 5.52411 0ZM27.7139 36.0553V49.5H43.9994V34.188L35.7851 26.0783L27.7139 34.3365V36.0553V36.0553ZM21.9994 19.25H27.4994V13.75H21.9994V19.25ZM10.9994 41.25H16.4994V35.75H10.9994V41.25ZM10.9994 30.25H16.4994V24.75H10.9994V30.25ZM10.9994 19.25H16.4994V13.75H10.9994V19.25Z" fill="#CCA43D"/>
<path d="M30.7305 38.0236C30.8875 37.6599 31.114 37.3303 31.3973 37.0533C31.6807 36.7755 32.0149 36.5547 32.3816 36.4029C32.7619 36.245 33.1698 36.1641 33.5816 36.165C34.1594 36.165 34.723 36.3233 35.2129 36.6221C35.3301 36.6936 35.4414 36.7721 35.5469 36.8576C35.6523 36.7721 35.7637 36.6936 35.8809 36.6221C36.3707 36.3233 36.9344 36.165 37.5121 36.165C37.9281 36.165 38.3312 36.2447 38.7121 36.4029C39.0801 36.5553 39.4117 36.7744 39.6965 37.0533C39.9801 37.33 40.2066 37.6597 40.3633 38.0236C40.5262 38.4022 40.6094 38.8041 40.6094 39.2178C40.6094 39.608 40.5297 40.0147 40.3715 40.4283C40.2391 40.774 40.0492 41.1326 39.8066 41.4947C39.4223 42.0678 38.8937 42.6654 38.2375 43.2713C37.15 44.2756 36.073 44.9693 36.0273 44.9975L35.7496 45.1756C35.6266 45.2541 35.4684 45.2541 35.3453 45.1756L35.0676 44.9975C35.0219 44.9682 33.9461 44.2756 32.8574 43.2713C32.2012 42.6654 31.6727 42.0678 31.2883 41.4947C31.0457 41.1326 30.8547 40.774 30.7234 40.4283C30.5652 40.0147 30.4855 39.608 30.4855 39.2178C30.4844 38.8041 30.5676 38.4022 30.7305 38.0236V38.0236Z" fill="#123B77"/>
</svg>
