<svg width="54" height="63" viewBox="0 0 54 63" fill="none" xmlns="http://www.w3.org/2000/svg">
<path d="M26 29.7778C28.9385 29.7778 31.8109 28.9046 34.2542 27.2686C36.6974 25.6325 38.6017 23.3072 39.7262 20.5866C40.8507 17.866 41.1449 14.8724 40.5717 11.9842C39.9984 9.09606 38.5834 6.44311 36.5056 4.36086C34.4278 2.27861 31.7805 0.860583 28.8985 0.286093C26.0165 -0.288398 23.0292 0.00645101 20.3144 1.13336C17.5996 2.26026 15.2793 4.16861 13.6467 6.61707C12.0142 9.06554 11.1429 11.9441 11.1429 14.8889C11.1429 18.8377 12.7082 22.6247 15.4944 25.4169C18.2807 28.2091 22.0596 29.7778 26 29.7778ZM48.2857 63C49.2708 63 50.2155 62.6078 50.9121 61.9098C51.6087 61.2117 52 60.265 52 59.2778C52 52.3674 49.2607 45.7401 44.3848 40.8537C39.5088 35.9674 32.8956 33.2222 26 33.2222C19.1044 33.2222 12.4912 35.9674 7.61522 40.8537C2.73928 45.7401 1.02753e-07 52.3674 0 59.2778C0 60.265 0.391326 61.2117 1.08789 61.9098C1.78445 62.6078 2.7292 63 3.71429 63H48.2857Z" fill="#CCA43D"/>
<path d="M32.3672 38.6469C32.6813 37.9195 33.1343 37.2603 33.7008 36.7063C34.2677 36.1506 34.936 35.709 35.6695 35.4055C36.4301 35.0895 37.2459 34.9278 38.0695 34.9297C39.225 34.9297 40.3523 35.2461 41.332 35.8438C41.5664 35.9867 41.7891 36.1438 42 36.3149C42.2109 36.1438 42.4336 35.9867 42.668 35.8438C43.6477 35.2461 44.775 34.9297 45.9305 34.9297C46.7625 34.9297 47.5688 35.0891 48.3305 35.4055C49.0664 35.7102 49.7297 36.1485 50.2992 36.7063C50.8664 37.2597 51.3195 37.919 51.6328 38.6469C51.9586 39.4039 52.125 40.2078 52.125 41.0352C52.125 41.8156 51.9656 42.6289 51.6492 43.4563C51.3844 44.1477 51.0047 44.8649 50.5195 45.5891C49.7508 46.7352 48.6938 47.9305 47.3813 49.1422C45.2063 51.1508 43.0523 52.5383 42.9609 52.5945L42.4055 52.9508C42.1594 53.1078 41.843 53.1078 41.5969 52.9508L41.0414 52.5945C40.95 52.536 38.7984 51.1508 36.6211 49.1422C35.3086 47.9305 34.2516 46.7352 33.4828 45.5891C32.9977 44.8649 32.6156 44.1477 32.3531 43.4563C32.0367 42.6289 31.8773 41.8156 31.8773 41.0352C31.875 40.2078 32.0414 39.4039 32.3672 38.6469V38.6469Z" fill="#123B77"/>
</svg>
