<svg width="63" height="47" viewBox="0 0 63 47" fill="none" xmlns="http://www.w3.org/2000/svg">
<path d="M61.9653 15.652C60.9955 14.7536 59.2761 15.2757 58.6208 16.5019L60.66 11.4027C61.31 9.80016 61.2786 7.29914 59.6797 6.58891C58.0809 5.87867 56.2199 7.46911 55.6066 9.32666L57.0062 5.56908C57.6248 3.71153 57.1478 1.76899 55.5542 1.05876C53.9553 0.348518 52.4823 1.42298 51.8637 3.28053L50.3488 7.6148C50.9673 5.75726 51.004 4.30643 49.4052 3.59619C47.8063 2.88595 46.0817 4.53103 45.4684 6.38858C45.4684 6.38858 39.9222 21.0972 39.5186 21.3764C38.9681 21.7589 37.8987 22.2566 37.6681 21.6557C36.9971 19.9256 37.4951 17.6978 37.0181 13.8552C36.6931 11.2146 35.2253 9.89121 33.595 9.79408C32.3945 9.72731 31.8022 10.7107 31.5505 13.2846C31.2989 10.7107 30.7066 9.72124 29.5061 9.79408C27.8758 9.89121 26.408 11.2085 26.083 13.8552C25.6112 17.6978 26.104 19.9195 25.433 21.6557C25.2024 22.2566 24.133 21.7589 23.5825 21.3764C23.1789 21.0972 17.6327 6.38858 17.6327 6.38858C17.0142 4.53103 15.2895 2.88595 13.6959 3.59619C12.0971 4.30643 12.1338 5.75726 12.7523 7.6148L11.2374 3.28053C10.6188 1.42298 9.14576 0.348518 7.54691 1.05876C5.94807 1.76899 5.47628 3.71153 6.09485 5.56908L7.49449 9.32666C6.87592 7.46911 5.01497 5.87867 3.41613 6.58891C1.81728 7.29914 1.78583 9.80016 2.43585 11.4027L4.47503 16.5019C3.82501 15.2757 2.1056 14.7536 1.13057 15.652C-0.090847 16.7872 0.39667 19.1425 1.04669 20.4659C1.04669 20.4659 7.25335 36.9228 9.52319 40.48C11.793 44.0373 15.5202 49.0029 21.8264 46.1498C28.9033 42.9507 30.9477 38.8896 31.5401 35.5023C32.1272 38.8896 34.1768 42.9568 41.2537 46.1498C47.56 49.0029 51.2871 44.0373 53.5569 40.48C55.8268 36.9228 62.0334 20.4659 62.0334 20.4659C62.6992 19.1486 63.1867 16.7872 61.9653 15.652Z" fill="#CCA43D"/>
<path d="M39.6765 21.8014C42.6855 24.8366 43.0524 27.459 42.6488 33.0681C42.5963 33.839 41.9935 34.2154 42.004 33.4384C42.1665 24.873 37.3438 22.2688 37.3438 22.2688L39.6765 21.8014V21.8014Z" fill="#B0903C"/>
<path d="M55.0313 29.9966C55.0313 29.9966 51.1207 25.6502 48.8037 24.3147C46.8851 23.2099 42.812 22.3661 42.812 22.3661L42.4922 23.2949C42.4922 23.2949 46.2246 24.9582 48.0383 25.9962C50.2348 27.2467 54.6329 30.8343 54.6329 30.8343L55.0313 29.9966V29.9966Z" fill="#B0903C"/>
<path d="M8.41797 29.3894C8.41797 29.3894 12.3286 25.043 14.6456 23.7075C16.5642 22.6027 20.6373 21.7589 20.6373 21.7589L20.9571 22.6877C20.9571 22.6877 17.2247 24.351 15.4109 25.389C13.2145 26.6395 8.81637 30.2271 8.81637 30.2271L8.41797 29.3894Z" fill="#B0903C"/>
<path d="M52.375 27.7624L57.6119 16.2286L59.1321 17.5216L53.8218 28.6912L52.375 27.7624Z" fill="#B0903C"/>
<path d="M48.2812 25.5164C47.9143 25.2432 47.8094 24.6787 48.0401 24.2598C48.8211 22.8393 54.7919 8.48889 54.7919 8.48889L56.3174 10.1461C56.3174 10.1461 50.053 24.1688 49.403 25.6196C49.1147 26.2752 48.4123 25.6135 48.2812 25.5164Z" fill="#B0903C"/>
<path d="M43.8555 22.8272L49.323 7.56006L51.0896 8.30065L45.5434 23.3856L43.8555 22.8272Z" fill="#B0903C"/>
<path d="M23.4198 21.8014C20.4108 24.8366 20.0439 27.459 20.4475 33.0681C20.4999 33.839 21.1028 34.2154 21.0923 33.4384C20.9298 24.873 25.7525 22.2688 25.7525 22.2688L23.4198 21.8014V21.8014Z" fill="#B0903C"/>
<path d="M10.718 27.7625L5.48115 16.2288L3.96094 17.5218L9.27119 28.6913L10.718 27.7625Z" fill="#B0903C"/>
<path d="M14.3928 25.6622C14.5339 25.662 14.6725 25.618 14.7939 25.5348C14.9154 25.4515 15.0153 25.332 15.0833 25.1888C15.1513 25.0455 15.1849 24.8838 15.1805 24.7204C15.1762 24.5571 15.134 24.3981 15.0585 24.26C14.2775 22.8395 8.3067 8.48901 8.3067 8.48901L6.78125 9.97626C6.78125 9.97626 12.9355 24.2417 13.6956 25.6137C13.8371 25.8929 14.1307 25.6622 14.3928 25.6622Z" fill="#B0903C"/>
<path d="M19.2341 22.8273L13.7666 7.56018L12 8.30077L17.5462 23.3858L19.2341 22.8273Z" fill="#B0903C"/>
<path d="M54.5529 2.05466C54.7521 2.05466 54.9618 2.10322 55.1663 2.19428C56.3353 2.71633 56.3615 4.08825 56.026 5.11415L54.7574 8.51358C54.705 8.64106 54.6578 8.76854 54.6159 8.89602C54.4114 9.5152 54.6683 10.2072 55.1977 10.4561C55.4517 10.5763 55.7363 10.5762 55.9902 10.4558C56.2441 10.3355 56.4471 10.1045 56.5554 9.81265L56.6655 9.52127C57.1111 8.45895 58.0704 7.63337 58.8567 7.63337C59.0087 7.63337 59.1555 7.66373 59.2971 7.72443C59.5644 7.84584 59.7479 8.0583 59.8632 8.40432C60.0939 9.06599 60.0257 10.0919 59.6955 10.8993L57.6563 15.9984C57.5832 16.1832 57.5512 16.3863 57.5633 16.5891C57.5754 16.7919 57.6311 16.988 57.7255 17.1595C57.8198 17.3309 57.9498 17.4722 58.1034 17.5706C58.2571 17.6689 58.4295 17.7211 58.6051 17.7224C58.9563 17.7224 59.3023 17.516 59.4963 17.1457C59.7164 16.7329 60.2511 16.4233 60.7439 16.4233C60.9011 16.4233 61.1266 16.4537 61.2943 16.6115C61.9391 17.2064 61.6088 18.8879 61.1213 19.8774C61.1003 19.9138 61.0846 19.9563 61.0689 19.9927C61.006 20.1566 54.8832 36.3647 52.7077 39.7702C50.8048 42.7507 48.383 45.7981 44.855 45.7981C43.8381 45.7981 42.7477 45.5431 41.6259 45.0332C33.6422 41.4031 32.8349 36.7835 32.5728 35.2659C32.4732 34.7014 32.0433 34.2886 31.5453 34.2886C31.0473 34.2886 30.6175 34.6953 30.5179 35.2659C30.2557 36.7835 29.4485 41.4092 21.4542 45.0271C20.3324 45.5371 19.2473 45.792 18.2251 45.792C14.6919 45.792 12.2753 42.7447 10.3724 39.7641C8.19693 36.3525 2.07415 20.1445 2.01124 19.9806C1.99694 19.9403 1.97939 19.9017 1.95882 19.8653C1.47654 18.8819 1.14105 17.2004 1.78583 16.6055C1.95358 16.4537 2.17899 16.4173 2.33625 16.4173C2.82901 16.4173 3.36371 16.7269 3.58387 17.1396C3.78307 17.5099 4.12381 17.7163 4.47503 17.7163C4.65058 17.715 4.82306 17.6628 4.97671 17.5645C5.13036 17.4662 5.26029 17.3248 5.35464 17.1534C5.449 16.9819 5.50476 16.7859 5.51685 16.5831C5.52894 16.3803 5.49697 16.1772 5.42386 15.9923L3.38467 10.8871C3.05966 10.0858 2.99152 9.06599 3.22217 8.39825C3.34274 8.0583 3.52097 7.83977 3.78832 7.71836C3.92985 7.65766 4.07139 7.6273 4.22865 7.6273C5.01497 7.6273 5.97428 8.45288 6.41986 9.5152L6.52994 9.80658C6.70293 10.2619 7.08561 10.5411 7.49449 10.5411C7.62554 10.5411 7.76184 10.5108 7.88765 10.45C8.4171 10.2012 8.67397 9.50913 8.46952 8.88995C8.42759 8.76247 8.38041 8.63499 8.32799 8.50751L7.0594 5.10808C6.7239 4.08218 6.75011 2.7042 7.9191 2.18821C8.12879 2.09715 8.33323 2.04859 8.53243 2.04859C9.2506 2.04859 9.91111 2.68598 10.2571 3.7301L11.7721 8.06437C11.8744 8.36131 12.0743 8.59907 12.3279 8.72542C12.5815 8.85176 12.868 8.85636 13.1245 8.73819C13.6592 8.49537 13.9266 7.79728 13.7169 7.17202C13.4495 6.37073 13.3447 5.76976 13.4076 5.39339C13.4286 5.25984 13.4757 4.97453 14.0576 4.71957C14.1939 4.65887 14.325 4.62852 14.4665 4.62852C15.2633 4.62852 16.2436 5.60585 16.642 6.81387C16.6472 6.83208 16.6525 6.85029 16.6577 6.86243C22.3402 21.9292 22.6757 22.1599 23.0269 22.4088C23.2733 22.5787 24.1434 23.1372 24.9507 23.1372C25.6007 23.1372 26.1302 22.7669 26.3713 22.1417C26.8274 20.9579 26.8431 19.7196 26.8641 18.1534C26.8798 16.9879 26.8956 15.6645 27.1 14.0195C27.3254 12.2044 28.2375 11.0753 29.5376 11.0025H29.6005C29.8102 11.0025 30.2505 11.0025 30.4864 13.4185C30.5441 14.0316 30.9949 14.499 31.5296 14.499C32.0643 14.499 32.5099 14.1166 32.5728 13.5035C32.8087 11.0935 33.249 11.1664 33.4587 11.1664C33.4796 11.1664 33.5006 11.0874 33.5216 11.0874C34.8269 11.1603 35.7338 12.253 35.9592 14.068C36.1636 15.7131 36.1793 17.0122 36.1951 18.1777C36.216 19.7439 36.2318 20.9701 36.6878 22.1599C36.929 22.7851 37.4584 23.1494 38.1084 23.1494C38.9157 23.1494 39.7859 22.5848 40.0323 22.4148C40.3888 22.166 40.719 21.9353 46.4015 6.8685C46.4067 6.85029 46.4119 6.83208 46.4172 6.81994C46.8156 5.618 47.7906 4.63459 48.5927 4.63459C48.7342 4.63459 48.8705 4.66494 49.0015 4.72564C49.5834 4.98667 49.6254 5.26591 49.6516 5.39946C49.7145 5.77583 49.6096 6.37073 49.3423 7.17809C49.1378 7.79727 49.3999 8.50144 49.9346 8.74426C50.1912 8.86243 50.4777 8.85784 50.7313 8.73149C50.9849 8.60514 51.1848 8.36738 51.2871 8.07044L52.8073 3.71795C53.1743 2.69205 53.8348 2.05466 54.5529 2.05466V2.05466ZM54.5529 0.840576C53.363 0.840576 52.3408 1.81791 51.8533 3.28088L50.3383 7.61516C50.9569 5.75761 50.9936 4.30679 49.3947 3.59655C49.1326 3.48121 48.8705 3.42657 48.6084 3.42657C47.2664 3.42657 45.9716 4.83491 45.4579 6.38894C45.4579 6.38894 39.9117 21.0976 39.5081 21.3768C39.1411 21.6318 38.5488 21.9353 38.1242 21.9353C37.9092 21.9353 37.7362 21.8564 37.6576 21.656C36.9866 19.926 37.4846 17.6981 37.0076 13.8556C36.6826 11.2149 35.2148 9.89157 33.5845 9.79444C33.5478 9.79444 33.5059 9.78837 33.4692 9.78837C32.3473 9.78837 31.7812 10.7961 31.5401 13.2849C31.2989 10.7961 30.7328 9.78837 29.611 9.78837C29.5743 9.78837 29.5323 9.78837 29.4956 9.79444C27.8653 9.89157 26.3976 11.2088 26.0725 13.8556C25.6008 17.6981 26.0935 19.9199 25.4225 21.656C25.3439 21.8564 25.1709 21.9353 24.956 21.9353C24.5314 21.9353 23.939 21.6318 23.5721 21.3768C23.1684 21.0976 17.6223 6.38894 17.6223 6.38894C17.1033 4.83491 15.8137 3.42657 14.4717 3.42657C14.2096 3.42657 13.9475 3.48121 13.6854 3.59655C12.0866 4.30679 12.1233 5.75761 12.7418 7.61516L11.2321 3.28088C10.7446 1.81791 9.72763 0.840576 8.53243 0.840576C8.19354 0.844155 7.85796 0.918175 7.54167 1.05911C5.94283 1.76935 5.47104 3.71188 6.0896 5.56943L7.37392 9.01136C7.41586 9.11456 7.4578 9.21775 7.48925 9.32702L7.37392 9.01136C6.78681 7.59695 5.50773 6.41322 4.22865 6.41322C3.95606 6.41322 3.67823 6.46785 3.41613 6.58926C1.81728 7.2995 1.78583 9.80051 2.43585 11.4031L4.47503 16.5023C4.05042 15.701 3.16975 15.1971 2.33625 15.1971C1.89591 15.1971 1.4713 15.3367 1.13057 15.6524C-0.090847 16.7876 0.39667 19.1429 1.04669 20.4662C1.04669 20.4662 7.25335 36.9231 9.52319 40.4804C11.3212 43.2971 14.0366 47 18.2199 47C19.3207 47 20.5159 46.7451 21.8264 46.1502C28.9033 42.9511 30.9477 38.89 31.5401 35.5027C32.1272 38.89 34.1768 42.9571 41.2537 46.1502C42.5642 46.7451 43.7647 47 44.8603 47C49.0435 47 51.7589 43.2971 53.5569 40.4804C55.8268 36.9231 62.0334 20.4662 62.0334 20.4662C62.6835 19.1429 63.1762 16.7876 61.9496 15.6524C61.6141 15.3428 61.1842 15.1971 60.7439 15.1971C59.9156 15.1971 59.0297 15.701 58.6051 16.5023L60.6443 11.4031C61.2943 9.80051 61.2628 7.2995 59.664 6.58926C59.3967 6.46785 59.1241 6.41322 58.8515 6.41322C57.5776 6.41322 56.2933 7.59695 55.7062 9.01136L55.5909 9.32702C55.6276 9.22382 55.6643 9.11456 55.7062 9.01136L56.9905 5.56943C57.6091 3.71188 57.1321 1.76935 55.5385 1.05911C55.2082 0.913422 54.8727 0.840576 54.5529 0.840576V0.840576Z" fill="#B0903C"/>
<path d="M31.5458 13.6001L31.5039 35.0105" stroke="#B0903C" stroke-width="0.375" stroke-miterlimit="10" stroke-linecap="round" stroke-linejoin="round"/>
</svg>
