<svg width="52" height="38" viewBox="0 0 52 38" fill="none" xmlns="http://www.w3.org/2000/svg">
<path d="M50.6973 12.1947C49.899 11.4551 48.4836 11.8848 47.9442 12.8942L49.6228 8.69668C50.1579 7.37744 50.132 5.31864 48.8158 4.73398C47.4997 4.14931 45.9678 5.45856 45.4629 6.98767L46.6151 3.89446C47.1243 2.36535 46.7316 0.766275 45.4197 0.181613C44.1036 -0.403048 42.891 0.48144 42.3818 2.01055L41.1347 5.57849C41.6439 4.04937 41.6741 2.85506 40.3579 2.2704C39.0418 1.68574 37.6221 3.03996 37.1172 4.56907C37.1172 4.56907 32.5516 16.6771 32.2194 16.9069C31.7663 17.2217 30.886 17.6315 30.6961 17.1368C30.1437 15.7126 30.5537 13.8787 30.161 10.7155C29.8934 8.54177 28.6852 7.4524 27.3431 7.37245C26.3549 7.31748 25.8673 8.12701 25.6602 10.2458C25.453 8.12701 24.9654 7.31248 23.9772 7.37245C22.6352 7.4524 21.4269 8.53677 21.1594 10.7155C20.771 13.8787 21.1766 15.7076 20.6243 17.1368C20.4344 17.6315 19.5541 17.2217 19.101 16.9069C18.7687 16.6771 14.2032 4.56907 14.2032 4.56907C13.694 3.03996 12.2743 1.68574 10.9624 2.2704C9.64627 2.85506 9.67648 4.04937 10.1857 5.57849L8.93857 2.01055C8.42937 0.48144 7.21678 -0.403048 5.90063 0.181613C4.58448 0.766275 4.1961 2.36535 4.7053 3.89446L5.85748 6.98767C5.34828 5.45856 3.81636 4.14931 2.50021 4.73398C1.18406 5.31864 1.15817 7.37744 1.69326 8.69668L3.37189 12.8942C2.8368 11.8848 1.4214 11.4551 0.618758 12.1947C-0.386696 13.1291 0.0146226 15.068 0.549714 16.1574C0.549714 16.1574 5.65898 29.7045 7.52748 32.6328C9.39599 35.5611 12.4641 39.6488 17.6554 37.3001C23.481 34.6666 25.1639 31.3236 25.6516 28.5352C26.1349 31.3236 27.8221 34.6716 33.6477 37.3001C38.839 39.6488 41.9071 35.5611 43.7756 32.6328C45.6441 29.7045 50.7534 16.1574 50.7534 16.1574C51.3014 15.073 51.7027 13.1291 50.6973 12.1947Z" fill="#CCA43D"/>
<path d="M32.35 17.2567C34.8269 19.7553 35.129 21.914 34.7967 26.5313C34.7536 27.166 34.2573 27.4758 34.2659 26.8362C34.3997 19.7852 30.4297 17.6415 30.4297 17.6415L32.35 17.2567Z" fill="#B0903C"/>
<path d="M44.994 24.0029C44.994 24.0029 41.7748 20.425 39.8674 19.3256C38.2881 18.4162 34.9351 17.7216 34.9351 17.7216L34.6719 18.4861C34.6719 18.4861 37.7443 19.8553 39.2374 20.7098C41.0455 21.7392 44.666 24.6925 44.666 24.6925L44.994 24.0029Z" fill="#B0903C"/>
<path d="M6.61719 23.5032C6.61719 23.5032 9.83637 19.9252 11.7437 18.8259C13.3231 17.9164 16.676 17.2218 16.676 17.2218L16.9393 17.9864C16.9393 17.9864 13.8668 19.3556 12.3737 20.2101C10.5656 21.2395 6.94515 24.1928 6.94515 24.1928L6.61719 23.5032Z" fill="#B0903C"/>
<path d="M42.8047 22.1637L47.1156 12.6692L48.3671 13.7336L43.9957 22.9282L42.8047 22.1637Z" fill="#B0903C"/>
<path d="M39.4318 20.3147C39.1298 20.0899 39.0434 19.6251 39.2333 19.2803C39.8763 18.111 44.7914 6.29785 44.7914 6.29785L46.0471 7.66206C46.0471 7.66206 40.8904 19.2054 40.3553 20.3997C40.1179 20.9394 39.5397 20.3947 39.4318 20.3147Z" fill="#B0903C"/>
<path d="M35.7891 18.1011L40.2899 5.53333L41.7441 6.14297L37.1786 18.5608L35.7891 18.1011Z" fill="#B0903C"/>
<path d="M18.9641 17.2567C16.4872 19.7553 16.1851 21.914 16.5174 26.5313C16.5605 27.166 17.0568 27.4758 17.0482 26.8362C16.9144 19.7852 20.8844 17.6415 20.8844 17.6415L18.9641 17.2567Z" fill="#B0903C"/>
<path d="M8.50767 22.1638L4.19674 12.6693L2.94531 13.7337L7.31666 22.9284L8.50767 22.1638Z" fill="#B0903C"/>
<path d="M11.5314 20.4348C11.6476 20.4346 11.7616 20.3984 11.8616 20.3299C11.9615 20.2613 12.0438 20.163 12.0998 20.045C12.1558 19.9271 12.1834 19.794 12.1798 19.6595C12.1762 19.525 12.1416 19.3941 12.0794 19.2805C11.4364 18.1111 6.52136 6.29797 6.52136 6.29797L5.26562 7.52226C5.26562 7.52226 10.3317 19.2655 10.9574 20.3948C11.074 20.6247 11.3156 20.4348 11.5314 20.4348Z" fill="#B0903C"/>
<path d="M15.5176 18.1012L11.0167 5.53345L9.5625 6.14309L14.128 18.5609L15.5176 18.1012Z" fill="#B0903C"/>
<path d="M44.5955 1.00162C44.7595 1.00162 44.9321 1.0416 45.1004 1.11655C46.0627 1.5463 46.0843 2.67565 45.8081 3.52016L44.7638 6.31854C44.7207 6.42348 44.6818 6.52842 44.6473 6.63336C44.479 7.14306 44.6905 7.71273 45.1263 7.91761C45.3354 8.01653 45.5696 8.01646 45.7786 7.91739C45.9877 7.81833 46.1548 7.6282 46.2439 7.38792L46.3346 7.14806C46.7014 6.27356 47.4911 5.59396 48.1383 5.59396C48.2635 5.59396 48.3843 5.61894 48.5008 5.66892C48.7209 5.76886 48.8719 5.94376 48.9669 6.22859C49.1567 6.77328 49.1006 7.61779 48.8288 8.2824L47.1501 12.48C47.09 12.6321 47.0636 12.7993 47.0736 12.9662C47.0835 13.1332 47.1295 13.2946 47.2071 13.4357C47.2848 13.5769 47.3918 13.6932 47.5182 13.7742C47.6447 13.8551 47.7867 13.8981 47.9312 13.8991C48.2203 13.8991 48.5051 13.7292 48.6648 13.4244C48.846 13.0846 49.2862 12.8298 49.6918 12.8298C49.8213 12.8298 50.0068 12.8548 50.1449 12.9847C50.6757 13.4744 50.4038 14.8586 50.0025 15.6731C49.9853 15.7031 49.9723 15.7381 49.9594 15.7681C49.9076 15.903 44.8674 29.2453 43.0765 32.0486C41.5101 34.5022 39.5165 37.0108 36.6123 37.0108C35.7751 37.0108 34.8776 36.8009 33.9541 36.3811C27.382 33.3929 26.7174 29.5901 26.5017 28.3408C26.4197 27.8761 26.0658 27.5363 25.6559 27.5363C25.2459 27.5363 24.8921 27.8711 24.8101 28.3408C24.5943 29.5901 23.9298 33.3979 17.349 36.3761C16.4255 36.7959 15.5323 37.0058 14.6908 37.0058C11.7823 37.0058 9.79299 34.4972 8.22655 32.0436C6.43572 29.2353 1.3955 15.893 1.34372 15.7581C1.33195 15.7249 1.3175 15.6931 1.30057 15.6631C0.903565 14.8536 0.627389 13.4694 1.15816 12.9797C1.29625 12.8548 1.48181 12.8248 1.61127 12.8248C2.0169 12.8248 2.45706 13.0796 2.6383 13.4194C2.80228 13.7243 3.08277 13.8942 3.37189 13.8942C3.5164 13.8931 3.65838 13.8501 3.78486 13.7692C3.91135 13.6882 4.01831 13.5719 4.09598 13.4307C4.17365 13.2896 4.21955 13.1282 4.22951 12.9613C4.23946 12.7943 4.21314 12.6271 4.15295 12.475L2.47432 8.27241C2.20677 7.61279 2.15067 6.77328 2.34054 6.22359C2.4398 5.94376 2.58651 5.76386 2.80659 5.66392C2.9231 5.61395 3.03962 5.58896 3.16907 5.58896C3.81636 5.58896 4.60605 6.26857 4.97285 7.14306L5.06347 7.38292C5.20587 7.75771 5.52089 7.98757 5.85748 7.98757C5.96536 7.98757 6.07756 7.96259 6.18112 7.91262C6.61696 7.70774 6.82841 7.13807 6.66011 6.62836C6.62559 6.52342 6.58675 6.41848 6.5436 6.31354L5.49931 3.51516C5.22313 2.67065 5.24471 1.53631 6.20701 1.11156C6.37962 1.0366 6.54792 0.996621 6.7119 0.996621C7.30309 0.996621 7.84681 1.52132 8.13162 2.38082L9.37873 5.94875C9.46294 6.19319 9.6275 6.38891 9.83626 6.49292C10.045 6.59692 10.2809 6.60071 10.4921 6.50343C10.9322 6.30355 11.1523 5.72888 10.9797 5.21418C10.7596 4.55456 10.6733 4.05985 10.7251 3.75003C10.7423 3.64009 10.7812 3.40523 11.2602 3.19535C11.3724 3.14538 11.4803 3.12039 11.5968 3.12039C12.2527 3.12039 13.0596 3.92493 13.3876 4.91935C13.3919 4.93434 13.3962 4.94933 13.4005 4.95933C18.0783 17.3621 18.3545 17.552 18.6436 17.7569C18.8464 17.8968 19.5627 18.3566 20.2273 18.3566C20.7624 18.3566 21.1982 18.0517 21.3967 17.537C21.7721 16.5626 21.7851 15.5432 21.8023 14.2539C21.8153 13.2945 21.8282 12.2051 21.9965 10.8509C22.1821 9.35678 22.9329 8.42732 24.0031 8.36735H24.0549C24.2275 8.36735 24.59 8.36735 24.7842 10.3562C24.8316 10.8609 25.2028 11.2457 25.6429 11.2457C26.0831 11.2457 26.4499 10.9309 26.5017 10.4262C26.6958 8.44231 27.0583 8.50228 27.2309 8.50228C27.2482 8.50228 27.2655 8.43731 27.2827 8.43731C28.3572 8.49728 29.1038 9.39676 29.2893 10.8909C29.4576 12.2451 29.4706 13.3145 29.4835 14.2739C29.5008 15.5632 29.5137 16.5726 29.8891 17.552C30.0876 18.0667 30.5235 18.3666 31.0586 18.3666C31.7231 18.3666 32.4394 17.9018 32.6423 17.7619C32.9357 17.557 33.2076 17.3671 37.8853 4.96432C37.8896 4.94933 37.8939 4.93434 37.8982 4.92435C38.2262 3.93492 39.0288 3.12539 39.6891 3.12539C39.8056 3.12539 39.9178 3.15037 40.0257 3.20035C40.5047 3.41522 40.5392 3.64509 40.5608 3.75502C40.6125 4.06485 40.5262 4.55456 40.3062 5.21918C40.1379 5.72888 40.3536 6.30855 40.7938 6.50843C41.0049 6.6057 41.2408 6.60192 41.4496 6.49792C41.6583 6.39391 41.8229 6.19819 41.9071 5.95375L43.1585 2.37083C43.4606 1.52631 44.0043 1.00162 44.5955 1.00162ZM44.5955 0.00219727C43.616 0.00219727 42.7745 0.806732 42.3732 2.01103L41.1261 5.57897C41.6353 4.04985 41.6655 2.85555 40.3493 2.27088C40.1335 2.17594 39.9178 2.13096 39.702 2.13096C38.5973 2.13096 37.5314 3.29029 37.1086 4.56955C37.1086 4.56955 32.543 16.6775 32.2107 16.9074C31.9087 17.1173 31.421 17.3671 31.0715 17.3671C30.8946 17.3671 30.7522 17.3022 30.6875 17.1373C30.1351 15.7131 30.545 13.8792 30.1524 10.716C29.8848 8.54225 28.6765 7.45288 27.3345 7.37293C27.3043 7.37293 27.2698 7.36793 27.2396 7.36793C26.3161 7.36793 25.85 8.19745 25.6515 10.2463C25.453 8.19745 24.987 7.36793 24.0635 7.36793C24.0333 7.36793 23.9988 7.36793 23.9686 7.37293C22.6266 7.45288 21.4183 8.53725 21.1507 10.716C20.7624 13.8792 21.168 15.7081 20.6156 17.1373C20.5509 17.3022 20.4085 17.3671 20.2316 17.3671C19.8821 17.3671 19.3944 17.1173 19.0924 16.9074C18.7601 16.6775 14.1945 4.56955 14.1945 4.56955C13.7673 3.29029 12.7058 2.13096 11.6011 2.13096C11.3853 2.13096 11.1696 2.17594 10.9538 2.27088C9.63764 2.85555 9.66785 4.04985 10.177 5.57897L8.93425 2.01103C8.53294 0.806732 7.69578 0.00219727 6.7119 0.00219727C6.43293 0.00514329 6.15668 0.0660758 5.89631 0.182093C4.58016 0.766755 4.19179 2.36583 4.70099 3.89494L5.75823 6.7283C5.79275 6.81325 5.82727 6.8982 5.85316 6.98815L5.75823 6.7283C5.27492 5.56398 4.222 4.58954 3.16907 4.58954C2.94468 4.58954 2.71597 4.63451 2.50021 4.73446C1.18406 5.31912 1.15816 7.37793 1.69326 8.69716L3.37189 12.8947C3.02235 12.2351 2.29739 11.8204 1.61127 11.8204C1.24879 11.8204 0.89925 11.9353 0.618758 12.1951C-0.386696 13.1296 0.0146226 15.0685 0.549714 16.1578C0.549714 16.1578 5.65898 29.705 7.52748 32.6333C9.00761 34.952 11.2429 38.0002 14.6865 38.0002C15.5927 38.0002 16.5766 37.7903 17.6554 37.3006C23.481 34.6671 25.1639 31.3241 25.6515 28.5357C26.1349 31.3241 27.8221 34.6721 33.6477 37.3006C34.7265 37.7903 35.7147 38.0002 36.6166 38.0002C40.0602 38.0002 42.2955 34.952 43.7756 32.6333C45.6441 29.705 50.7534 16.1578 50.7534 16.1578C51.2885 15.0685 51.6941 13.1296 50.6843 12.1951C50.4082 11.9403 50.0543 11.8204 49.6918 11.8204C49.01 11.8204 48.2807 12.2351 47.9312 12.8947L49.6098 8.69716C50.1449 7.37793 50.119 5.31912 48.8029 4.73446C48.5828 4.63451 48.3584 4.58954 48.134 4.58954C47.0854 4.58954 46.0282 5.56398 45.5449 6.7283L45.4499 6.98815C45.4801 6.9032 45.5103 6.81325 45.5449 6.7283L46.6021 3.89494C47.1113 2.36583 46.7186 0.766755 45.4068 0.182093C45.1349 0.0621628 44.8587 0.00219727 44.5955 0.00219727Z" fill="#B0903C"/>
<path d="M25.6517 10.5055L25.6172 28.1303" stroke="#B0903C" stroke-width="0.375" stroke-miterlimit="10" stroke-linecap="round" stroke-linejoin="round"/>
</svg>
