<svg width="39" height="38" viewBox="0 0 39 38" fill="none" xmlns="http://www.w3.org/2000/svg">
<path d="M19.6944 12.9881C16.174 12.9881 13.3011 15.773 13.3011 19.1855C13.3011 22.598 16.174 25.3829 19.6944 25.3829C23.2149 25.3829 26.0878 22.598 26.0878 19.1855C26.0878 15.773 23.2149 12.9881 19.6944 12.9881ZM38.8697 19.1855C38.8697 16.6191 38.8937 14.076 38.745 11.5143C38.5963 8.53879 37.8961 5.89804 35.6514 3.7222C33.402 1.54172 30.6826 0.867585 27.613 0.723459C24.9655 0.579333 22.3419 0.602579 19.6992 0.602579C17.0517 0.602579 14.4282 0.579333 11.7855 0.723459C8.7159 0.867585 5.99166 1.54637 3.74703 3.7222C1.49761 5.90269 0.802154 8.53879 0.653472 11.5143C0.504789 14.0807 0.52877 16.6238 0.52877 19.1855C0.52877 21.7472 0.504789 24.295 0.653472 26.8567C0.802154 29.8322 1.5024 32.473 3.74703 34.6488C5.99645 36.8293 8.7159 37.5034 11.7855 37.6476C14.433 37.7917 17.0565 37.7684 19.6992 37.7684C22.3467 37.7684 24.9703 37.7917 27.613 37.6476C30.6826 37.5034 33.4068 36.8246 35.6514 34.6488C37.9009 32.4683 38.5963 29.8322 38.745 26.8567C38.8985 24.295 38.8697 21.7519 38.8697 19.1855V19.1855ZM19.6944 28.7211C14.2507 28.7211 9.8574 24.4624 9.8574 19.1855C9.8574 13.9086 14.2507 9.64996 19.6944 9.64996C25.1381 9.64996 29.5315 13.9086 29.5315 19.1855C29.5315 24.4624 25.1381 28.7211 19.6944 28.7211ZM29.9343 11.4864C28.6633 11.4864 27.637 10.4915 27.637 9.25942C27.637 8.02738 28.6633 7.03245 29.9343 7.03245C31.2053 7.03245 32.2317 8.02738 32.2317 9.25942C32.2321 9.55198 32.1729 9.84173 32.0576 10.1121C31.9423 10.3824 31.7731 10.6281 31.5597 10.835C31.3463 11.0418 31.0929 11.2058 30.814 11.3176C30.5351 11.4294 30.2361 11.4868 29.9343 11.4864V11.4864Z" fill="#B32739"/>
</svg>
