<svg width="39" height="38" viewBox="0 0 39 38" fill="none" xmlns="http://www.w3.org/2000/svg">
<path d="M19.6983 12.8536C16.1779 12.8536 13.305 15.631 13.305 19.0343C13.305 22.4376 16.1779 25.215 19.6983 25.215C23.2188 25.215 26.0917 22.4376 26.0917 19.0343C26.0917 15.631 23.2188 12.8536 19.6983 12.8536ZM38.8736 19.0343C38.8736 16.4748 38.8976 13.9386 38.7489 11.3837C38.6002 8.41624 37.9 5.78259 35.6553 3.61261C33.4059 1.43799 30.6865 0.765671 27.6169 0.621934C24.9694 0.478196 22.3458 0.501379 19.7031 0.501379C17.0556 0.501379 14.4321 0.478196 11.7894 0.621934C8.71981 0.765671 5.99556 1.44263 3.75093 3.61261C1.50151 5.78723 0.806061 8.41624 0.657378 11.3837C0.508695 13.9432 0.532677 16.4795 0.532677 19.0343C0.532677 21.5891 0.508695 24.13 0.657378 26.6849C0.806061 29.6524 1.50631 32.286 3.75093 34.456C6.00036 36.6306 8.71981 37.3029 11.7894 37.4467C14.4369 37.5904 17.0604 37.5672 19.7031 37.5672C22.3506 37.5672 24.9742 37.5904 27.6169 37.4467C30.6865 37.3029 33.4107 36.626 35.6553 34.456C37.9048 32.2814 38.6002 29.6524 38.7489 26.6849C38.9024 24.13 38.8736 21.5938 38.8736 19.0343ZM19.6983 28.5442C14.2546 28.5442 9.86131 24.297 9.86131 19.0343C9.86131 13.7716 14.2546 9.52441 19.6983 9.52441C25.142 9.52441 29.5354 13.7716 29.5354 19.0343C29.5354 24.297 25.142 28.5442 19.6983 28.5442ZM29.9383 11.3559C28.6673 11.3559 27.6409 10.3637 27.6409 9.13493C27.6409 7.9062 28.6673 6.91395 29.9383 6.91395C31.2092 6.91395 32.2356 7.9062 32.2356 9.13493C32.236 9.4267 32.1768 9.71567 32.0615 9.9853C31.9462 10.2549 31.777 10.4999 31.5636 10.7062C31.3502 10.9125 31.0968 11.0761 30.8179 11.1876C30.539 11.2991 30.2401 11.3563 29.9383 11.3559Z" fill="#AAA9AD"/>
</svg>
