<svg width="39" height="38" viewBox="0 0 39 38" fill="none" xmlns="http://www.w3.org/2000/svg">
<path d="M19.6944 12.3536C16.174 12.3536 13.3011 15.131 13.3011 18.5343C13.3011 21.9376 16.174 24.715 19.6944 24.715C23.2149 24.715 26.0878 21.9376 26.0878 18.5343C26.0878 15.131 23.2149 12.3536 19.6944 12.3536ZM38.8697 18.5343C38.8697 15.9748 38.8937 13.4386 38.745 10.8837C38.5963 7.91624 37.8961 5.28259 35.6514 3.11261C33.402 0.937994 30.6826 0.265671 27.613 0.121934C24.9655 -0.0218044 22.3419 0.00137916 19.6992 0.00137916C17.0517 0.00137916 14.4282 -0.0218044 11.7855 0.121934C8.7159 0.265671 5.99166 0.942631 3.74703 3.11261C1.49761 5.28723 0.802154 7.91624 0.653472 10.8837C0.504789 13.4432 0.52877 15.9795 0.52877 18.5343C0.52877 21.0891 0.504789 23.63 0.653472 26.1849C0.802154 29.1524 1.5024 31.786 3.74703 33.956C5.99645 36.1306 8.7159 36.8029 11.7855 36.9467C14.433 37.0904 17.0565 37.0672 19.6992 37.0672C22.3467 37.0672 24.9703 37.0904 27.613 36.9467C30.6826 36.8029 33.4068 36.126 35.6514 33.956C37.9009 31.7814 38.5963 29.1524 38.745 26.1849C38.8985 23.63 38.8697 21.0938 38.8697 18.5343V18.5343ZM19.6944 28.0442C14.2507 28.0442 9.8574 23.797 9.8574 18.5343C9.8574 13.2716 14.2507 9.02441 19.6944 9.02441C25.1381 9.02441 29.5315 13.2716 29.5315 18.5343C29.5315 23.797 25.1381 28.0442 19.6944 28.0442ZM29.9343 10.8559C28.6633 10.8559 27.637 9.86366 27.637 8.63493C27.637 7.4062 28.6633 6.41395 29.9343 6.41395C31.2053 6.41395 32.2317 7.4062 32.2317 8.63493C32.2321 8.9267 32.1729 9.21567 32.0576 9.4853C31.9423 9.75492 31.7731 9.99991 31.5597 10.2062C31.3463 10.4125 31.0929 10.5761 30.814 10.6876C30.5351 10.7991 30.2361 10.8563 29.9343 10.8559V10.8559Z" fill="white"/>
</svg>
