<svg width="39" height="38" viewBox="0 0 39 38" fill="none" xmlns="http://www.w3.org/2000/svg">
<path d="M19.6944 12.8536C16.174 12.8536 13.3011 15.631 13.3011 19.0343C13.3011 22.4376 16.174 25.215 19.6944 25.215C23.2149 25.215 26.0878 22.4376 26.0878 19.0343C26.0878 15.631 23.2149 12.8536 19.6944 12.8536ZM38.8697 19.0343C38.8697 16.4748 38.8937 13.9386 38.745 11.3837C38.5963 8.41624 37.8961 5.78259 35.6514 3.61261C33.402 1.43799 30.6826 0.765671 27.613 0.621934C24.9655 0.478196 22.3419 0.501379 19.6992 0.501379C17.0517 0.501379 14.4282 0.478196 11.7855 0.621934C8.7159 0.765671 5.99166 1.44263 3.74703 3.61261C1.49761 5.78723 0.802154 8.41624 0.653472 11.3837C0.504789 13.9432 0.52877 16.4795 0.52877 19.0343C0.52877 21.5891 0.504789 24.13 0.653472 26.6849C0.802154 29.6524 1.5024 32.286 3.74703 34.456C5.99645 36.6306 8.7159 37.3029 11.7855 37.4467C14.433 37.5904 17.0565 37.5672 19.6992 37.5672C22.3467 37.5672 24.9703 37.5904 27.613 37.4467C30.6826 37.3029 33.4068 36.626 35.6514 34.456C37.9009 32.2814 38.5963 29.6524 38.745 26.6849C38.8985 24.13 38.8697 21.5938 38.8697 19.0343ZM19.6944 28.5442C14.2507 28.5442 9.8574 24.297 9.8574 19.0343C9.8574 13.7716 14.2507 9.52441 19.6944 9.52441C25.1381 9.52441 29.5315 13.7716 29.5315 19.0343C29.5315 24.297 25.1381 28.5442 19.6944 28.5442ZM29.9343 11.3559C28.6633 11.3559 27.637 10.3637 27.637 9.13493C27.637 7.9062 28.6633 6.91395 29.9343 6.91395C31.2053 6.91395 32.2317 7.9062 32.2317 9.13493C32.2321 9.4267 32.1729 9.71567 32.0576 9.9853C31.9423 10.2549 31.7731 10.4999 31.5597 10.7062C31.3463 10.9125 31.0929 11.0761 30.814 11.1876C30.5351 11.2991 30.2361 11.3563 29.9343 11.3559Z" fill="#B32739"/>
</svg>
