<svg width="77" height="375" viewBox="0 0 77 375" fill="none" xmlns="http://www.w3.org/2000/svg">
<path fill-rule="evenodd" clip-rule="evenodd" d="M52.3296 298.153L23.7204 298.279L23.7661 286.823L52.3867 286.701L52.3296 298.153Z" fill="#AAA9AD"/>
<path fill-rule="evenodd" clip-rule="evenodd" d="M45.1524 275.043C48.3794 278.163 48.8779 282.912 46.7317 286.635L42.1994 286.617C42.2946 286.539 42.3973 286.484 42.4848 286.399C43.0913 285.824 43.5743 285.138 43.9061 284.382C44.2379 283.625 44.4119 282.813 44.4183 281.991C44.4247 281.17 44.2632 280.355 43.9432 279.594C43.6231 278.833 43.1508 278.14 42.5533 277.556C41.9489 276.978 41.2324 276.521 40.4451 276.212C39.6577 275.903 38.8149 275.747 37.965 275.753C37.1151 275.759 36.2748 275.927 35.4923 276.248C34.7098 276.569 34.0005 277.036 33.4051 277.622C30.8631 280.079 30.8288 284.034 33.3404 286.462C33.3937 286.514 33.4508 286.539 33.5155 286.594L28.9908 286.583C28.0034 284.733 27.6508 282.626 27.984 280.568C28.3171 278.511 29.3188 276.609 30.8441 275.139C34.8169 271.298 41.2367 271.257 45.1524 275.043Z" fill="#AAA9AD"/>
<line x1="38.5" y1="-2.18557e-08" x2="38.5" y2="273" stroke="#AAA9AD"/>
<path fill-rule="evenodd" clip-rule="evenodd" d="M55.8068 301.452C59.9798 303.897 63.55 307.298 66.2407 311.393L10.9374 311.2C13.5859 307.159 17.1019 303.8 21.2133 301.383C22.316 300.732 54.7783 300.838 55.8068 301.452Z" fill="#AAA9AD"/>
<path fill-rule="evenodd" clip-rule="evenodd" d="M38.4892 360.241C24.7859 360.194 13.0978 351.758 8.46125 339.958L68.3688 340.171C63.8226 351.937 52.1861 360.287 38.4892 360.241Z" fill="#AAA9AD"/>
<path fill-rule="evenodd" clip-rule="evenodd" d="M70.4478 328.298C70.4543 330.091 70.2641 331.827 69.9707 333.524L6.83553 333.301C6.5086 331.581 6.33484 329.832 6.31642 328.079C6.32275 324.581 6.95111 321.114 8.17039 317.85L68.5229 318.056C69.7721 321.319 70.4247 324.791 70.4478 328.298ZM22.6088 324.935L19.1105 321.333L15.7088 324.835L19.2072 328.438L22.6088 324.935ZM35.5318 324.908L32.0335 321.306L28.4932 324.951L31.9916 328.554L35.5318 324.908ZM48.3839 324.955L44.8856 321.353L41.4162 324.925L44.9146 328.527L48.3839 324.955ZM61.5068 324.722L58.0085 321.12L54.336 324.902L57.8344 328.504L61.5068 324.722Z" fill="#AAA9AD"/>
</svg>
