<svg width="158" height="205" viewBox="0 0 158 205" fill="none" xmlns="http://www.w3.org/2000/svg">
<path fill-rule="evenodd" clip-rule="evenodd" d="M107.98 97.24C114.488 100.829 120.055 105.822 124.251 111.833L38.0091 111.55C42.1392 105.618 47.6222 100.686 54.0337 97.1377C55.7533 96.1824 106.376 96.3383 107.98 97.24V97.24Z" fill="#CCA43D"/>
<path fill-rule="evenodd" clip-rule="evenodd" d="M80.9733 183.543C59.6038 183.474 41.3769 171.09 34.1464 153.768L127.569 154.08C120.479 171.353 102.333 183.611 80.9733 183.543Z" fill="#CCA43D"/>
<path fill-rule="evenodd" clip-rule="evenodd" d="M130.812 136.65C130.822 139.282 130.526 141.831 130.068 144.322L31.6126 143.995C31.1028 141.469 30.8318 138.903 30.8031 136.329C30.8129 131.194 31.7928 126.104 33.6942 121.312L127.811 121.614C129.759 126.404 130.776 131.502 130.812 136.65V136.65ZM56.2101 131.713L50.7546 126.425L45.45 131.567L50.9055 136.855L56.2101 131.713ZM76.3628 131.674L70.9073 126.386L65.3865 131.737L70.842 137.026L76.3628 131.674V131.674ZM96.4049 131.742L90.9494 126.454L85.5391 131.698L90.9947 136.987L96.4049 131.742V131.742ZM116.869 131.401L111.414 126.113L105.687 131.664L111.142 136.952L116.869 131.401V131.401Z" fill="#CCA43D"/>
<path fill-rule="evenodd" clip-rule="evenodd" d="M96.386 91.9375L58.5846 92.1032L58.645 76.9258L96.4614 76.765L96.386 91.9375V91.9375Z" fill="#CCA43D"/>
<path fill-rule="evenodd" clip-rule="evenodd" d="M86.906 61.3189C91.1698 65.452 91.8285 71.7443 88.9926 76.6767L83.0041 76.6523C83.1298 76.55 83.2656 76.4769 83.3813 76.3648C84.1826 75.6021 84.8208 74.6937 85.2591 73.6915C85.6975 72.6893 85.9275 71.613 85.9359 70.5245C85.9443 69.436 85.731 68.3565 85.3081 67.3481C84.8853 66.3396 84.2612 65.422 83.4718 64.6478C82.6731 63.8826 81.7264 63.2776 80.6861 62.8678C79.6457 62.4579 78.5321 62.2511 77.4092 62.2592C76.2862 62.2674 75.1759 62.4903 74.142 62.9153C73.1081 63.3402 72.1709 63.9588 71.3842 64.7356C68.0254 67.9914 67.9801 73.2308 71.2987 76.4476C71.3691 76.5159 71.4445 76.55 71.53 76.6231L65.5516 76.6085C64.2469 74.1563 63.781 71.3653 64.2212 68.6394C64.6614 65.9135 65.9849 63.3941 68.0002 61.4457C73.2496 56.3573 81.732 56.3037 86.906 61.3189V61.3189Z" fill="#CCA43D"/>
<line x1="77.5" y1="-2.18557e-08" x2="77.5" y2="59" stroke="#CCA43D"/>
</svg>
