<svg width="157" height="291" viewBox="0 0 157 291" fill="none" xmlns="http://www.w3.org/2000/svg">
<path fill-rule="evenodd" clip-rule="evenodd" d="M107.172 183.205C113.679 186.794 119.247 191.787 123.443 197.798L37.2005 197.515C41.3306 191.583 46.8136 186.652 53.2251 183.103C54.9447 182.148 105.568 182.304 107.172 183.205V183.205Z" fill="#CCA43D"/>
<path fill-rule="evenodd" clip-rule="evenodd" d="M80.1647 269.508C58.7952 269.44 40.5683 257.055 33.3378 239.733L126.76 240.045C119.671 257.318 101.524 269.576 80.1647 269.508Z" fill="#CCA43D"/>
<path fill-rule="evenodd" clip-rule="evenodd" d="M130.004 222.616C130.014 225.248 129.717 227.797 129.26 230.287L30.804 229.961C30.2942 227.434 30.0232 224.868 29.9945 222.294C30.0043 217.159 30.9842 212.07 32.8856 207.277L127.002 207.58C128.95 212.369 129.968 217.467 130.004 222.616V222.616ZM55.4015 217.678L49.946 212.39L44.6414 217.532L50.0969 222.82L55.4015 217.678ZM75.5542 217.639L70.0987 212.351L64.5778 217.703L70.0334 222.991L75.5542 217.639V217.639ZM95.5963 217.708L90.1408 212.419L84.7305 217.664L90.1861 222.952L95.5963 217.708V217.708ZM116.061 217.366L110.605 212.078L104.878 217.63L110.334 222.918L116.061 217.366V217.366Z" fill="#CCA43D"/>
<path fill-rule="evenodd" clip-rule="evenodd" d="M95.5774 177.903L57.776 178.069L57.8364 162.891L95.6529 162.73L95.5774 177.903V177.903Z" fill="#CCA43D"/>
<path fill-rule="evenodd" clip-rule="evenodd" d="M86.0974 147.285C90.3612 151.418 91.0199 157.71 88.184 162.642L82.1955 162.618C82.3212 162.516 82.457 162.443 82.5727 162.33C83.374 161.568 84.0122 160.659 84.4505 159.657C84.8889 158.655 85.1189 157.579 85.1273 156.49C85.1357 155.402 84.9224 154.322 84.4995 153.314C84.0767 152.305 83.4526 151.388 82.6632 150.614C81.8645 149.848 80.9178 149.243 79.8775 148.833C78.8371 148.424 77.7235 148.217 76.6006 148.225C75.4776 148.233 74.3673 148.456 73.3334 148.881C72.2995 149.306 71.3623 149.924 70.5756 150.701C67.2168 153.957 67.1715 159.197 70.4901 162.413C70.5605 162.482 70.6359 162.516 70.7214 162.589L64.7429 162.574C63.4383 160.122 62.9724 157.331 63.4126 154.605C63.8528 151.879 65.1763 149.36 67.1916 147.411C72.441 142.323 80.9234 142.269 86.0974 147.285V147.285Z" fill="#CCA43D"/>
<line x1="76.5" y1="-2.18557e-08" x2="76.5" y2="146" stroke="#CCA43D"/>
</svg>
