<svg width="111" height="220" viewBox="0 0 111 220" fill="none" xmlns="http://www.w3.org/2000/svg">
<path fill-rule="evenodd" clip-rule="evenodd" d="M72.8141 146.452C76.9873 148.897 80.5577 152.298 83.2485 156.393L27.9424 156.2C30.591 152.159 34.1072 148.8 38.2188 146.383C39.3215 145.732 71.7855 145.838 72.8141 146.452Z" fill="#AAA9AD"/>
<path fill-rule="evenodd" clip-rule="evenodd" d="M55.4954 205.241C41.7914 205.194 30.1027 196.758 25.4659 184.958L85.3766 185.171C80.8301 196.937 69.193 205.287 55.4954 205.241Z" fill="#AAA9AD"/>
<path fill-rule="evenodd" clip-rule="evenodd" d="M87.4553 173.298C87.4618 175.091 87.2715 176.827 86.9781 178.524L23.8398 178.301C23.5128 176.58 23.3391 174.832 23.3206 173.079C23.327 169.581 23.9554 166.114 25.1747 162.85L85.5303 163.056C86.7796 166.318 87.4322 169.791 87.4553 173.298ZM39.6139 169.935L36.1153 166.333L32.7135 169.835L36.2121 173.437L39.6139 169.935ZM52.5376 169.908L49.039 166.306L45.4985 169.951L48.9971 173.554L52.5376 169.908ZM65.3903 169.955L61.8917 166.352L58.4222 169.925L61.9208 173.527L65.3903 169.955ZM78.5139 169.722L75.0153 166.12L71.3427 169.902L74.8412 173.504L78.5139 169.722Z" fill="#AAA9AD"/>
<path fill-rule="evenodd" clip-rule="evenodd" d="M70.3374 142.916L41.7282 143.041L41.7739 131.586L70.3945 131.464L70.3374 142.916Z" fill="#AAA9AD"/>
<path fill-rule="evenodd" clip-rule="evenodd" d="M63.1602 119.806C66.3872 122.925 66.8858 127.675 64.7395 131.398L60.2072 131.379C60.3024 131.302 60.4051 131.247 60.4926 131.162C61.0991 130.586 61.5821 129.901 61.9139 129.144C62.2457 128.388 62.4197 127.576 62.4261 126.754C62.4325 125.932 62.271 125.118 61.951 124.356C61.6309 123.595 61.1586 122.903 60.5611 122.318C59.9567 121.741 59.2402 121.284 58.4529 120.975C57.6655 120.665 56.8227 120.509 55.9728 120.515C55.1229 120.521 54.2826 120.69 53.5001 121.011C52.7177 121.331 52.0084 121.798 51.4129 122.384C48.8709 124.842 48.8366 128.797 51.3482 131.225C51.4015 131.276 51.4586 131.302 51.5233 131.357L46.9986 131.346C46.0112 129.495 45.6586 127.389 45.9918 125.331C46.3249 123.274 47.3266 121.372 48.8519 119.901C52.8247 116.061 59.2445 116.02 63.1602 119.806Z" fill="#AAA9AD"/>
<line x1="56.5" y1="-2.18557e-08" x2="56.5" y2="118" stroke="#AAA9AD"/>
</svg>
