<svg width="157" height="403" viewBox="0 0 157 403" fill="none" xmlns="http://www.w3.org/2000/svg">
<path fill-rule="evenodd" clip-rule="evenodd" d="M107.23 294.96C113.738 298.549 119.305 303.542 123.501 309.552L37.259 309.27C41.3892 303.338 46.8722 298.406 53.2837 294.858C55.0033 293.902 105.626 294.058 107.23 294.96V294.96Z" fill="#CCA43D"/>
<path fill-rule="evenodd" clip-rule="evenodd" d="M80.2233 381.262C58.8538 381.194 40.6269 368.809 33.3964 351.487L126.819 351.799C119.729 369.073 101.583 381.331 80.2233 381.262Z" fill="#CCA43D"/>
<path fill-rule="evenodd" clip-rule="evenodd" d="M130.062 334.37C130.072 337.002 129.776 339.551 129.318 342.041L30.8626 341.715C30.3528 339.188 30.0818 336.622 30.0531 334.048C30.0629 328.913 31.0428 323.824 32.9442 319.031L127.061 319.334C129.009 324.123 130.026 329.221 130.062 334.37V334.37ZM55.4601 329.432L50.0046 324.144L44.7 329.286L50.1555 334.574L55.4601 329.432ZM75.6128 329.393L70.1573 324.105L64.6364 329.457L70.092 334.745L75.6128 329.393V329.393ZM95.6549 329.462L90.1994 324.173L84.7891 329.418L90.2447 334.706L95.6549 329.462V329.462ZM116.119 329.12L110.664 323.832L104.937 329.384L110.392 334.672L116.119 329.12V329.12Z" fill="#CCA43D"/>
<path fill-rule="evenodd" clip-rule="evenodd" d="M95.636 289.657L57.8346 289.823L57.895 274.645L95.7114 274.484L95.636 289.657V289.657Z" fill="#CCA43D"/>
<path fill-rule="evenodd" clip-rule="evenodd" d="M86.156 259.039C90.4198 263.172 91.0785 269.464 88.2426 274.396L82.2541 274.372C82.3798 274.27 82.5156 274.197 82.6313 274.085C83.4326 273.322 84.0708 272.413 84.5091 271.411C84.9475 270.409 85.1775 269.333 85.1859 268.244C85.1943 267.156 84.981 266.076 84.5581 265.068C84.1353 264.059 83.5112 263.142 82.7218 262.368C81.9231 261.602 80.9764 260.997 79.9361 260.588C78.8957 260.178 77.7821 259.971 76.6592 259.979C75.5362 259.987 74.4259 260.21 73.392 260.635C72.3581 261.06 71.4209 261.679 70.6342 262.455C67.2754 265.711 67.2301 270.951 70.5487 274.167C70.6191 274.236 70.6945 274.27 70.78 274.343L64.8015 274.328C63.4969 271.876 63.031 269.085 63.4712 266.359C63.9114 263.633 65.2349 261.114 67.2502 259.165C72.4996 254.077 80.982 254.023 86.156 259.039V259.039Z" fill="#CCA43D"/>
<line x1="77.5" y1="-2.18557e-08" x2="77.5" y2="256" stroke="#CCA43D"/>
</svg>
