<svg width="78" height="291" viewBox="0 0 78 291" fill="none" xmlns="http://www.w3.org/2000/svg">
<path fill-rule="evenodd" clip-rule="evenodd" d="M54.3374 213.802L25.7282 213.927L25.7739 202.472L54.3945 202.35L54.3374 213.802V213.802Z" fill="#AAA9AD"/>
<path fill-rule="evenodd" clip-rule="evenodd" d="M47.1602 190.692C50.3872 193.812 50.8858 198.561 48.7395 202.284L44.2072 202.265C44.3024 202.188 44.4051 202.133 44.4926 202.048C45.0991 201.473 45.5821 200.787 45.9139 200.031C46.2457 199.274 46.4197 198.462 46.4261 197.64C46.4325 196.819 46.271 196.004 45.951 195.243C45.6309 194.481 45.1586 193.789 44.5611 193.205C43.9567 192.627 43.2402 192.17 42.4529 191.861C41.6655 191.552 40.8227 191.395 39.9728 191.402C39.1229 191.408 38.2826 191.576 37.5001 191.897C36.7177 192.218 36.0084 192.684 35.4129 193.271C32.8709 195.728 32.8366 199.683 35.3482 202.111C35.4015 202.162 35.4586 202.188 35.5233 202.243L30.9986 202.232C30.0112 200.381 29.6586 198.275 29.9918 196.217C30.3249 194.16 31.3266 192.258 32.8519 190.788C36.8247 186.947 43.2445 186.906 47.1602 190.692V190.692Z" fill="#AAA9AD"/>
<line x1="40.5" y1="-2.18557e-08" x2="40.5" y2="189" stroke="#AAA9AD"/>
<path fill-rule="evenodd" clip-rule="evenodd" d="M56.7096 217.452C60.9502 219.897 64.5781 223.298 67.3124 227.393L11.1141 227.2C13.8054 223.159 17.3783 219.8 21.5562 217.383C22.6768 216.732 55.6644 216.838 56.7096 217.452V217.452Z" fill="#AAA9AD"/>
<path fill-rule="evenodd" clip-rule="evenodd" d="M39.1186 276.241C25.1936 276.194 13.3163 267.758 8.60472 255.958L69.4818 256.171C64.862 267.937 53.0371 276.287 39.1186 276.241Z" fill="#AAA9AD"/>
<path fill-rule="evenodd" clip-rule="evenodd" d="M71.5879 244.298C71.5945 246.091 71.4012 247.827 71.103 249.524L6.94615 249.301C6.61393 247.581 6.43736 245.832 6.41864 244.079C6.42507 240.581 7.0636 237.114 8.30261 233.85L69.6319 234.056C70.9013 237.319 71.5644 240.791 71.5879 244.298V244.298ZM22.9747 240.935L19.4197 237.333L15.963 240.835L19.518 244.438L22.9747 240.935ZM36.1069 240.908L32.5519 237.306L28.9543 240.951L32.5093 244.554L36.1069 240.908V240.908ZM49.1669 240.955L45.6119 237.353L42.0865 240.925L45.6414 244.527L49.1669 240.955V240.955ZM62.5022 240.722L58.9472 237.12L55.2153 240.902L58.7703 244.504L62.5022 240.722V240.722Z" fill="#AAA9AD"/>
</svg>
